<?xml version="1.0" encoding="UTF-8" standalone="no"?>
<svg
   xmlns:dc="http://purl.org/dc/elements/1.1/"
   xmlns:cc="http://creativecommons.org/ns#"
   xmlns:rdf="http://www.w3.org/1999/02/22-rdf-syntax-ns#"
   xmlns:svg="http://www.w3.org/2000/svg"
   xmlns="http://www.w3.org/2000/svg"
   xmlns:sodipodi="http://sodipodi.sourceforge.net/DTD/sodipodi-0.dtd"
   xmlns:inkscape="http://www.inkscape.org/namespaces/inkscape"
   version="1.1"
   id="Layer_1"
   x="0px"
   y="0px"
   viewBox="0 0 313.86991 311.49999"
   xml:space="preserve"
   sodipodi:docname="nampi-1-largetext-bw.svg"
   width="313.8699"
   height="311.5"
   inkscape:version="1.0.1 (3bc2e813f5, 2020-09-07)"><metadata
   id="metadata89"><rdf:RDF><cc:Work
       rdf:about=""><dc:format>image/svg+xml</dc:format><dc:type
         rdf:resource="http://purl.org/dc/dcmitype/StillImage" /><dc:title></dc:title></cc:Work></rdf:RDF></metadata><defs
   id="defs87" /><sodipodi:namedview
   pagecolor="#ffffff"
   bordercolor="#666666"
   borderopacity="1"
   objecttolerance="10"
   gridtolerance="10"
   guidetolerance="10"
   inkscape:pageopacity="0"
   inkscape:pageshadow="2"
   inkscape:window-width="1858"
   inkscape:window-height="1057"
   id="namedview85"
   showgrid="false"
   fit-margin-top="0"
   fit-margin-left="0"
   fit-margin-right="0"
   fit-margin-bottom="0"
   inkscape:zoom="1.4950113"
   inkscape:cx="247.77868"
   inkscape:cy="62.053151"
   inkscape:window-x="1974"
   inkscape:window-y="-8"
   inkscape:window-maximized="1"
   inkscape:current-layer="Layer_1" />
<style
   type="text/css"
   id="style2">
	.st0{fill:#B0B2B5;}
	.st1{display:none;}
	.st2{display:inline;}
	.st3{font-family:'AgencyFB-Bold';}
	.st4{font-size:45.011px;}
</style>
<g
   id="g14"
   transform="translate(-159.83333,-445.8)">
	<path
   class="st0"
   d="m 464.6,686.6 c 0,0.1 0,0.1 0,0 v -85 c -0.6,0.4 -1.3,0.6 -2,0.7 v 82.5 c 0.8,0.5 1.5,1.1 2,1.8 z"
   id="path4" />
	<path
   class="st0"
   d="m 364.7,719.9 c 0.4,-1.1 1.1,-1.8 2.1,-2.3 v -98.2 h 14.9 v -2 h -14.9 v -4 c -0.5,0.2 -1.1,0.3 -1.7,0.4 -0.1,0 -0.3,0 -0.4,0 v 3.6 h -95.5 v -5.1 c -0.4,0.1 -0.8,0.1 -1.2,0.1 -0.4,0 -0.8,0 -1.2,-0.1 v 5.1 h -12.5 c 0.2,0.6 0.4,1.3 0.3,2 h 12.2 V 678 c 0.5,0.7 0.8,1.6 0.9,2.5 0.6,0.4 1.1,0.9 1.5,1.5 v -62.7 h 95.5 z"
   id="path6" />
	<path
   class="st0"
   d="m 362.8,730.5 h -81.4 c -0.7,1 -1.8,1.8 -3.3,2 h 85.6 c -0.4,-0.6 -0.7,-1.3 -0.9,-2 z"
   id="path8" />
	<path
   class="st0"
   d="m 266.8,598.8 c 0.6,-0.4 1.5,-0.6 2.4,-0.7 V 447.8 h 95.5 v 148.6 c 0.1,0 0.2,2 0.4,2 0.6,0 1.2,0.1 1.7,0.3 V 447.8 h 95.9 v 129.6 c 0.7,0.1 1.4,0.3 2,0.6 V 445.8 H 169.3 v 227.8 c 0,0 -1,4 -1,4 0.7,0 2.4,-1.9 3,-1.6 V 447.8 h 95.5 z"
   id="path10" />
	<path
   class="st0"
   d="m 176.4,730.5 h -5.2 v -35.3 c -0.6,0.2 -1.2,0.4 -2,0.4 0,0 0,0 0,0 v 36.9 h 7.5 c -0.1,-0.6 -0.3,-1.3 -0.3,-2 z"
   id="path12" />
</g>
<g
   id="g60"
   transform="translate(-159.83333,-445.8)">
	<g
   id="g58">
		<path
   d="m 169.6,672.2 c -0.3,-0.9 -0.4,-1.7 -1,-2.4 -0.5,-0.7 -0.6,-1.5 -0.6,-2.4 0,-6.8 0.1,-13.6 0.1,-20.4 0,-2.1 0.5,-4.1 0.9,-6.2 0.4,-2.1 0.6,-4.2 0.4,-6.3 -0.4,-3.3 -0.5,-6.6 -0.5,-9.9 0,-0.8 -0.2,-1.5 -0.6,-2.1 -2.2,-3.1 -4.1,-6.3 -6.1,-9.6 -1,-1.7 -1.2,-3.3 -0.4,-5.2 2.9,-7.3 5.7,-14.7 8.9,-22 0.4,-1 0.4,-1.8 -0.2,-2.6 -2.2,-2.7 -2.9,-6 -4,-9.2 -0.4,-1.3 -0.8,-2.6 -1.2,-3.9 -1.3,-4.3 -1.1,-8.6 1.1,-12.6 2.2,-4 4.2,-8 6.1,-12.1 2.5,-5.5 5.1,-10.9 7.5,-16.4 1.8,-4.2 3.9,-8.2 5.7,-12.3 0.8,-1.9 2.5,-3 4.3,-3.4 2,-0.5 4.1,-1 5.9,-1.9 3.1,-1.5 6.4,-1.3 9.7,-1.3 0.3,0 0.6,0.1 0.9,0.2 3.6,2 7.3,3.7 10.7,6.1 0.4,0.3 0.8,0.6 0.9,1 1.2,3.1 3.2,5.7 4.4,8.8 0.7,1.9 1.4,3.9 1.5,6 0,0.5 0.3,1.1 0.4,1.6 1.9,5.5 4.4,10.7 7.1,15.9 1.3,2.5 2.3,5.3 3.3,7.9 0.6,1.5 0,3 -0.2,4.5 -0.4,2.5 -0.9,5 -1.4,7.5 -0.1,0.7 -0.1,1.4 -0.6,2 -0.3,0.3 -0.1,0.7 0.1,1 1.7,3.8 3.1,7.8 4.8,11.7 0.6,1.3 1,2.6 1.4,4 0.6,2.3 2,3.9 4.2,4.7 2.5,1 4.6,2.9 7.2,3.5 0.2,0 0.4,0.2 0.5,0.3 0.8,1.4 2,1.2 3.1,0.9 0.6,-0.1 0.9,-0.2 0.9,0.5 0.1,0.5 0.5,0.6 0.9,0.6 1.2,0.1 2.4,0.5 3.5,0.2 1.2,-0.3 2.3,-0.5 3.5,-0.4 0.3,0 0.5,-0.4 0.7,-0.5 1.7,-1.3 3.6,-2.3 5.6,-3.1 -0.3,-0.8 -0.4,-1.6 -1.8,-1 -1,0.4 -2.9,-1 -3.1,-2.3 -0.1,-0.8 -0.5,-1.3 -1,-1.8 -0.6,-0.6 -1.5,-1 -1.7,-2 0,-0.3 -0.3,-0.3 -0.5,-0.4 -0.6,-0.2 -1.4,-0.2 -0.8,-1.3 0.1,-0.2 0,-0.5 -0.2,-0.7 -1.2,-0.8 -1.4,-2.2 -2.1,-3.4 -0.4,-0.7 -0.1,-0.9 0.5,-1 0.5,-0.1 1,0 1.5,0.1 0.6,0.2 1.1,0.3 1.9,0.6 -0.5,-0.9 -1.4,-1.3 -1.9,-1.4 -1.7,-0.3 -2.6,-1.6 -3.7,-2.7 -1.7,-1.8 -3.1,-3.8 -4.8,-5.5 -0.6,-0.5 -1.1,-1.1 -1.7,-1.6 -0.8,-0.6 -0.8,-1.3 -0.1,-1.9 0.5,-0.4 0.4,-0.7 0.2,-1.2 -0.5,-1 -1.1,-2 -1.5,-3 -0.5,-1 -1,-2.1 -0.3,-3.3 0.3,-0.4 -0.1,-0.6 -0.3,-0.9 -0.4,-0.6 -0.5,-1.3 0.1,-1.8 0.6,-0.5 1.2,-0.4 1.8,0.1 0.7,0.7 1.4,1.3 1.9,2.1 0.9,1.2 2.1,1.5 3.4,1.3 1.1,-0.1 1.9,0.3 2.6,1.1 1.1,1.5 2.1,3 2.9,4.7 0.9,1.9 2.1,3.6 3.8,4.8 3.4,2.3 5.1,5.6 5,9.9 0,0.5 -0.1,1 0.2,1.4 0.9,-0.6 1,-1.5 1,-2.7 1,0.7 1.7,1.4 2.6,1.9 0.3,0.2 0.3,0.5 0.3,0.8 0,0.8 0,1.6 0,2.4 0,0.8 -0.2,1.7 0.7,2.2 0.4,0.2 0.4,0.8 0.4,1.2 0,0.9 0,1.8 0,2.6 0,1 0.2,1.8 0.7,2.8 0.7,1.6 1.9,1.8 3,2.3 1.4,0.6 2.9,1.2 4.1,2.1 1.7,1.3 1.9,3 0.7,4.7 -0.2,0.3 -0.5,0.7 -0.4,1.1 0.4,1.2 0.2,2.3 -0.1,3.4 -0.3,1.2 0.4,2.4 0.5,3.6 0,0.4 0.3,0.6 0.5,0.9 1.3,1.1 1.9,2.6 1.7,4.6 -1.1,-0.8 -2.1,-1.5 -3.1,-2.2 -0.9,-0.6 -1.8,-1.3 -2.8,-1.9 -0.6,-0.4 -1.1,-0.5 -1.6,0.2 -0.3,0.5 -0.7,0.7 -1.2,0.6 -2.8,-0.5 -5.6,0 -8.5,-0.2 -1.6,-0.1 -2.7,-1.2 -3.8,-2.2 -0.8,-0.8 -1.6,-0.9 -2.5,-0.7 -1.7,0.3 -3.4,0.7 -5.1,1 -0.7,0.1 -1,0.4 -0.7,1.1 0.3,0.9 -0.2,1.8 -0.1,2.7 0.5,4 0.1,8.1 0.5,12.2 0.1,1.1 -0.3,2.1 -0.8,3.1 -1.3,2.4 -2.6,4.8 -3.9,7.2 -0.8,1.6 -0.7,2.1 0.6,3.2 0.3,0.3 0.6,0.6 1,0.8 3.1,1.9 5.2,4.6 6.4,8.1 0.4,1.3 1.2,2.3 2.1,3.3 1.5,1.7 2.8,3.7 4.3,5.5 0.6,0.8 0.8,1.6 0.9,2.5 1,5.6 1.9,11.3 3,16.8 0.7,3.3 1.6,6.6 2.6,9.8 1,3 1.1,6.1 1,9.2 0,1 0.2,1.8 0.7,2.6 2.4,3.6 4.7,7.2 7,10.8 1.1,1.7 2,3.5 2.7,5.4 0.7,2.2 1.6,4.4 2.3,6.6 0.6,1.7 0.4,2.3 -1,3.3 -0.6,0.4 -0.9,1 -1.1,1.6 -0.4,1 -1.1,1.6 -1.8,2.2 -2,1.9 -4.2,2.5 -6.9,2.5 -1.9,0 -3.9,0.7 -5.4,2.5 -1.6,2 -3.4,3.9 -4.9,6 -0.4,0.5 -0.8,1 -1.3,1.3 -2.8,1.4 -5.5,2.8 -8.7,2.8 -1.6,0 -3,0.5 -3.9,2 -1.1,1.7 -2.9,2.6 -4,4.3 -0.3,0.5 -0.6,0.9 -0.8,1.4 -1,2.7 -2.8,4.2 -5.6,4.2 -3.8,0 -7.7,0 -11.5,0 -1.7,0 -3.2,-0.7 -4.7,-1.4 -3.3,-1.7 -6.9,-2.7 -10.4,-3.9 -3.8,-1.3 -7.8,-1 -11.7,-0.4 -0.1,0 -0.3,0.1 -0.4,0.2 -1.9,1.3 -4,1.3 -6.1,1.3 -2.1,0 -3.9,-1.3 -5.9,-1.6 -0.3,0 -0.5,-0.2 -0.8,-0.3 -4.8,-1.4 -7.7,-4.6 -8.5,-9.7 -0.1,-0.9 -0.6,-1.6 -1.3,-2.2 -1.9,-1.6 -2.9,-3.7 -2.6,-6.2 0.1,-1.3 -0.4,-1.5 -1.4,-1.5 -1.9,0 -1.8,0 -3.6,0 -1.1,0 -1.5,-0.4 -1.5,-1.5 0,-11 0,-22 0,-33 0,-1.2 -0.3,-1.5 -1.4,-1.4 -1.5,0.1 -5.1,0 -6.6,0 -1,0 -1.5,-0.5 -1.4,-1.5 0,-2.6 0,-5.3 0,-7.9 0,-0.3 0.1,-0.7 -0.3,-0.8 -0.8,-0.2 -0.7,-0.7 -0.6,-1.4 0.6,-4.4 2.4,-8.2 4.9,-11.7 0.1,-0.2 0.3,-0.4 0.5,-0.5 1.2,0.3 2.6,0 4.3,0.3 z m 82.9,7.4 c -0.3,0.4 -0.2,0.7 -0.2,1 0,2 -0.2,4.1 -0.7,6 -0.3,0.9 -0.4,1.9 -0.2,2.7 0.2,0.6 0.2,1 0.2,1.6 -0.2,1.3 -0.4,2.6 -0.6,3.9 -0.8,4.9 -2.1,9.7 -3.1,14.6 -0.1,0.3 0,0.8 -0.6,0.5 -0.8,-0.3 -1.1,0.2 -1.4,0.8 -1.5,2.6 -2.6,5.5 -4.8,7.6 -0.2,0.2 -0.5,0.4 -0.4,0.7 0.2,0.5 0.5,-0.2 0.8,-0.1 -1,2.3 -1.8,4.7 -4.9,4.2 1.1,-3.5 2.9,-6.7 4.9,-9.8 -2,1.1 -3.6,2.6 -4.6,4.6 -0.7,1.3 -1.1,2.7 -1.7,4 -0.7,1.7 -1.5,3.3 -2.4,4.9 -0.9,1.5 -2.6,2.4 -3.3,4 0,0.1 -0.2,0.2 -0.3,0.2 -1.1,0.2 -1.4,1.1 -1.9,2 -0.3,0.5 -0.6,1.1 -1.2,1.1 -2.6,0.2 -5.1,2.1 -7.9,0.7 -0.1,0 -0.1,0 -0.2,0 -1.1,0.2 -2.1,0.3 -3.1,0.8 -0.2,0.1 -0.5,0 -0.6,0.3 -0.1,0.3 0.3,0.5 0.5,0.6 0.8,0.3 1.6,0.7 2.5,1 0,0.1 0,0.2 0,0.3 -1.1,0.3 -1.9,0.9 -3.1,1.1 -1.5,0.2 -3.1,-0.2 -4,1.6 -0.8,-1.6 -1.3,-1.7 -2.6,-0.9 -0.3,0.2 -0.6,0.2 -0.9,0.2 -4.1,0.5 -8.3,0.6 -12.4,0.5 -1.8,0 -3.5,-0.1 -4.9,1.3 -0.1,0.1 -0.2,0.1 -0.4,0.1 0.1,-0.3 0.4,-0.7 -0.1,-0.9 -1.1,-0.5 -2.3,-1 -3.5,-1.1 -0.5,0 -0.9,0.2 -1.1,0.7 -0.1,0.6 0.2,0.9 0.6,1.1 0.4,0.2 0.9,0.3 1.3,0.4 0.9,0.2 1.4,0.7 1.2,1.8 -0.1,0.7 1,1.8 1.6,1.7 1.3,-0.3 2.6,-0.6 4.2,-0.9 -1.4,-0.4 -2.7,0.2 -4,-0.5 1.5,-1.6 3.2,-2.3 5.3,-2.2 2.9,0.2 5.6,0.8 8.3,1.6 0.6,0.2 1,0.5 1.4,1.1 0.7,1.2 1.8,2.2 3.2,2.3 1.4,0.1 2.8,0.1 4.1,0 0.8,0 1.5,-0.3 2.2,-0.5 0,-0.1 0,-0.3 0.1,-0.4 -2.4,-0.4 -4.7,-1.2 -6.6,-3 1,-0.3 1.9,-0.8 2.6,-1.5 0.5,-0.4 1.1,-0.5 1.7,-0.6 1.5,-0.2 3,-0.1 4.4,-0.7 0.7,-0.3 0.7,0.2 0.6,0.5 -0.4,2.1 0.5,3.4 2.4,4 0.2,0 0.3,0.2 0.5,0.3 0.3,0.2 0.6,0.2 0.9,-0.1 -1.4,-0.5 -2.1,-1.8 -1.9,-3.2 0.4,0.1 0.2,0.7 0.7,1 0.7,-3.6 3.3,-4.7 6.3,-5.2 -0.8,-0.4 -1.5,-0.5 -2.1,-1.1 0.6,-0.2 1.1,-0.3 1.6,-0.4 1,-0.3 2,-0.2 2.8,-1 0.5,-0.6 0.9,-1.4 1.9,-1.1 0.2,0.1 0.7,-0.3 0.8,-0.5 0.6,-1.3 1.8,-1.9 3,-2.4 0.1,0 0.2,-0.1 0.3,-0.2 1.4,-1.4 3.1,-2.5 4.5,-4.1 1.4,-1.6 3.2,-2.6 4.6,-4.2 0.1,-0.1 0.3,-0.2 0.5,-0.3 1,-0.2 1.4,-0.9 1.3,-1.9 0,-0.6 0.3,-0.9 0.8,-1.2 0.1,0.8 -0.1,1.4 -0.3,2 -0.4,1.8 -0.4,3.8 -1.4,5.4 -0.7,1.2 -1.4,2.3 -0.9,3.8 1.8,-0.3 2.2,-0.6 2.6,-2.3 0.3,-1.3 0.9,-2.5 1.5,-3.7 0,-0.1 0.1,-0.2 0.2,-0.3 0.1,0.2 0.1,0.4 0.2,0.7 0.8,-2 1.2,-3.9 1.5,-5.9 -0.5,0.2 -0.4,1.1 -1.1,0.8 -0.8,-0.4 -0.3,-0.9 -0.2,-1.3 0.5,-2.2 0.5,-4.5 2.1,-6.2 0.1,0 0.1,-0.2 0.1,-0.2 -0.2,-1.9 1,-3.4 1,-5.2 0,-1 0.3,-1.9 1.5,-2 0.2,0 0.4,-0.1 0.4,-0.3 0.3,-1.9 0.9,-3.7 0.9,-5.7 -0.9,1.6 -1.7,3.2 -2.9,4.9 0,-0.4 0,-0.5 0.1,-0.7 1.8,-6.9 2.6,-13.9 2.2,-21.1 0.3,-0.6 0.2,-1.4 -0.4,-2.1 z m -49,-110.2 c 0.1,0.2 0.1,0.3 0.2,0.5 0.6,1.3 0.8,2.4 0.4,4 -0.5,1.8 -0.2,3.7 1.3,5.2 2.6,2.6 5.2,5.3 7.3,8.4 0.2,0.3 0.4,0.5 0.8,0.4 1.5,-0.5 3.1,-0.9 4.5,-1.8 1.4,-0.8 2.2,-2 2.1,-3.8 -0.1,-2.6 0,-5.2 0,-7.8 0,-0.6 -0.1,-1.2 -0.5,-1.7 -0.4,-0.5 -0.5,-0.9 -0.4,-1.5 0.3,-1.7 -0.1,-3.2 -1,-4.7 -1.3,-2.1 -3.1,-3.9 -4.1,-6.2 -0.2,-0.5 -0.6,-0.8 -0.9,0 -0.5,1.2 -1.5,2 -2.5,2.7 -0.5,0.4 -4.5,0.6 -4.9,0.1 -1.1,-1.4 -2.8,-2.2 -3.3,-4.1 -0.3,-1.1 -0.9,-2.1 -1.4,-3.2 -0.3,-0.6 -0.6,-1.2 -1.2,-1.8 -0.2,1.2 -0.6,2.2 -0.4,3.2 0.3,1.3 0.7,2.7 1.7,3.8 2.1,2.4 4,4.8 6,7.3 0.3,0.4 0.8,0.8 1,1.3 -1.5,0.6 -3,-1 -4.7,-0.3 z m 27.1,144.3 c -0.4,1.3 -1.2,2.4 -1.8,3.6 -0.2,0.4 -0.5,0.9 0.1,1.3 0.5,0.4 0.7,-0.1 1,-0.4 1.8,-1.8 3,-4 4.4,-6.1 2.9,-4.5 4.9,-9.4 7.4,-14.1 0.8,-1.4 1.3,-2.9 1.5,-4.5 0.3,-2.1 0.8,-4.1 1.1,-6.2 -0.1,0 -0.1,0 -0.1,-0.1 -1,2 -2,4.1 -3.1,6.2 -0.6,-1.1 -0.9,-0.4 -1.2,0.2 -0.8,1.8 -1.4,3.5 -2.2,5.3 -2.8,5.8 -6.3,11.3 -10.4,16.2 -0.4,0.5 -0.9,1.1 -1.2,1.8 -0.2,0.7 -0.6,1 -1.3,0.9 -0.7,0 -1.3,0.2 -1.8,0.8 -1.3,1.5 -2.4,3.1 -3.2,5 -0.6,1.5 -1.9,2.5 -3.7,2.5 2.8,-7.9 4.8,-16 7.5,-23.9 -0.2,0.2 -0.4,0.5 -0.5,0.8 -2,5 -3.7,10 -5.3,15.2 -0.1,0.4 -0.1,0.9 -0.5,1 -1.4,0.6 -2,2 -2.9,3.2 -0.8,1.1 -1.1,2.4 -1.4,3.7 -0.2,0.9 -0.6,1.8 -1.6,2 -0.9,0.2 -1.9,0 -2.9,0 0.4,-1 0.8,-1.6 1.5,-2.1 0.9,-0.6 1.7,-1.3 1.7,-2.5 0,-1 0.3,-2 0.6,-2.9 0.5,-1.9 1,-3.7 1.5,-5.6 -1,1.6 -2.8,2.5 -3.5,4.4 -0.2,0.7 -0.7,1.2 -1.1,1.8 -0.2,0.4 -0.6,0.6 -1,0.7 -2.6,0.8 -4.5,2.4 -5.7,4.9 -1,2.2 -2.4,4.1 -4.5,5.3 -0.2,0.1 -0.3,0.2 -0.3,0.4 1,0.8 2.2,-0.6 3.3,0.6 -1.5,-0.1 -2.7,0 -3.7,0.8 -0.2,0.2 -0.7,0.1 -1,0.1 -1.4,0.2 -2.8,0.4 -4.6,0.3 0.8,0.8 1.3,1.4 2,1.5 2.1,0.4 4.1,-0.1 6.1,-0.7 1.2,-0.3 2.2,-0.5 3.4,0 1.2,0.4 2.5,0.1 3.2,-0.9 -0.8,-0.5 -1.9,-0.3 -2.8,-1.1 1,-0.2 1.8,-0.4 2.6,-0.6 0.2,0 0.5,-0.1 0.5,-0.4 0,-0.3 -0.3,-0.3 -0.5,-0.3 -1,0 -2.2,-0.3 -2.9,1 -0.2,0.3 -0.6,0.2 -1,0 0.6,-0.8 1.2,-1.6 1.8,-2.4 0.4,-0.6 0.9,-0.8 1.6,-0.7 2.1,0.2 4.1,-0.1 6.2,0.4 2.6,0.6 5.2,0.4 7.8,0.3 0.8,0 1.1,0.1 0.8,0.9 -0.3,0.7 0.1,0.8 0.6,0.9 0.6,0.1 0.9,0 1.1,-0.8 0.3,-0.9 0,-2.4 1.6,-2.4 0.1,0 0.1,-0.2 0.2,-0.3 0.4,-1.5 0.9,-3 1.3,-4.5 -0.1,0 -0.1,0 -0.1,-0.1 -0.6,1.3 -1.3,2.5 -1.9,3.8 -0.1,0 -0.1,0 -0.1,-0.1 0.2,-0.9 0.3,-1.7 0.5,-2.8 -1.3,0.7 -1.8,1.7 -2.3,2.8 -0.1,0.2 0,0.6 -0.4,0.6 -1.9,0 -3.9,0 -5.9,0 0.6,-0.6 1.2,-0.8 1.9,-1 2,-0.6 3.6,-1.8 4.3,-3.8 0.6,-1.7 1.6,-3.1 2.9,-4.2 -0.5,1 -1.2,1.9 -1.6,3 1,0.1 1.1,-0.8 1.3,-1.3 0.7,-1.6 2.5,-2.1 3.3,-3.8 0.8,-1.1 2.3,-2.3 3.4,-3.6 z M 212.1,552.5 c 0.2,0 0.5,0 0.7,0 0.8,-0.2 0.9,-1 1.1,-1.6 0.1,-0.3 0.1,-0.6 -0.3,-0.7 -0.9,-0.1 -1.4,-0.8 -2.2,-1 -1.1,-0.4 -1.2,-1 -0.5,-2 0.3,-0.4 0.9,-0.5 0.9,-1 0.2,-1.1 0.9,-1.5 1.8,-1.7 0.4,-0.1 0.9,-0.2 0.9,-0.8 0,-0.9 0.5,-1 1.1,-1.2 0.8,-0.2 1.4,-0.8 0.8,-1.5 -0.9,-1 -1.1,-2.2 -1.7,-3.2 -1,-1.9 -1.6,-3.8 0,-5.7 0.2,-0.3 0.4,-0.6 0.5,-0.9 0.1,-0.2 0.2,-0.5 -0.2,-0.5 -0.9,0 -1.8,0 -2.6,0 -0.6,0.1 -0.3,0.8 -0.6,1.2 -0.1,0.1 -0.1,0.2 -0.2,0.3 -1.4,0.9 -2.8,1.8 -4.4,1.7 -0.9,0 -1.4,0.4 -1.4,1.1 -0.1,0.9 0.7,1 1.4,1 0.8,0 1.5,0 2.3,0 0.7,0 0.9,0.2 0.7,1 -0.5,1.7 -1.7,2.3 -3.3,2.5 -1.3,0.2 -2.6,0.8 -3.2,1.9 -0.6,1.2 -1.6,2 -1.8,3.5 -0.3,2.6 0.3,4.8 2.1,5.6 2.6,1.1 5.3,1.6 8.1,2 z m 55,168.4 c -0.1,1.1 0.2,2 -0.3,3 -1.3,2.4 -3,4.2 -5.4,5.4 -1,0.5 -1.1,1.5 -1.5,2.6 1.4,-0.3 2.4,-1.7 3.8,-0.6 0.1,0 0.2,0 0.3,0 1.5,-0.5 3.1,-0.8 4.7,-1 0.5,0 0.9,-0.5 1.3,-0.8 0.9,-0.7 1.3,-2 3.1,-1.4 1.5,0.5 3.3,0.2 4.9,0 1.3,-0.2 2.7,-0.8 2.9,-2.4 0.1,-1 0,-2 0,-3.4 -1,1.9 -2.7,2.7 -4.1,2.9 -2,0.3 -4.2,0.4 -6.3,-0.1 -0.5,-0.1 -0.7,0.1 -1,0.4 -1.1,1.1 -1.8,1.6 -3,1.9 2.1,-2.3 2.6,-4.9 2.4,-7.7 0,-0.2 0,-0.4 0.1,-0.5 1,-1.1 1,-2.5 0.6,-3.7 -0.6,-1.9 -1,-3.8 -1.6,-5.7 -0.3,-1 -0.4,-2 -0.9,-2.9 -0.1,3.4 -0.1,6.7 -0.1,10.1 0,0.6 0,1.1 -0.3,1.6 -1.6,2.2 -3.7,3.7 -5.8,5.3 -0.2,0.1 -0.4,0.3 -0.7,0.1 0.5,-0.9 1.1,-1.8 1.4,-2.8 0.6,-2.1 0.9,-4.3 2,-6.2 0.2,-0.3 0.2,-0.9 0.2,-1.3 0,-2.3 0,-4.6 -0.1,-7 0,-0.5 -0.1,-1 0.3,-1.4 0.7,-0.6 0.6,-1.4 0.6,-2.2 0,-1.6 0,-3 -0.9,-4.5 -0.6,-1 -0.7,-2.3 -1.6,-3.5 -0.1,1.8 -0.2,3.3 0.8,4.7 0.2,0.3 0.3,0.7 0.3,1.1 0.3,2.3 0.1,4.5 0.2,6.8 0,0.3 0,0.7 -0.5,0.8 -0.7,0.1 -0.8,0.7 -0.9,1.4 -0.1,2.2 -0.3,4.4 -1.5,6.4 -0.4,0.8 -0.5,1.7 -0.5,2.6 -0.1,2.1 -1.1,3.7 -2.5,5 -0.3,0.3 -0.5,2.3 -0.3,2.6 0.5,0.4 1,0.1 1.5,-0.1 3.5,-0.9 5.8,-3.2 8.4,-5.5 z m 13.2,-113.4 c -0.6,-0.5 -1.3,-0.4 -2,-0.5 -0.5,-0.1 -0.9,0 -0.9,-0.7 0,-0.5 -0.1,-0.8 0.4,-1.2 0.7,-0.6 1.3,-0.8 2.2,-0.6 0.2,0.1 0.5,0.2 0.6,-0.2 0.1,-0.2 0,-0.4 0,-0.6 -0.6,-0.9 -1.1,-1.8 -2.2,-2.2 -1.2,-0.4 -2.3,-1.2 -3.5,-1.5 -1.7,-0.5 -3.6,-1.2 -5.1,0 -1.6,1.2 -3.3,1.8 -5,2.5 -0.6,0.2 -1.6,0.2 -1.9,0.7 -0.4,0.5 0.3,1.3 0.5,1.9 0,0.1 -0.1,0.3 0,0.5 0.3,0.8 0.3,1.8 1.2,2.1 1.2,0.3 2,1.2 2.9,2 0.8,0.7 1.7,1.4 2.8,1.7 1.9,0.5 3.8,0.9 5.7,1.4 0.6,0.2 0.9,-0.1 1,-0.6 0.5,-2.1 1.8,-3.3 3.3,-4.7 z M 165.4,690 c 0.1,-0.5 0.4,-0.5 0.7,-0.5 3.3,-0.4 6.6,-0.3 9.9,-0.1 3.7,0.2 7.4,1 11.1,0.2 0.4,-0.1 0.9,0.2 0.9,-0.6 0,-0.7 -0.3,-0.9 -0.8,-1.1 -1.3,-0.4 -2.6,-0.4 -4,-0.4 -4.6,-0.1 -9.3,-0.6 -13.9,-0.7 -1.2,0 -3,-0.6 -3.8,1.3 -0.1,0.3 -0.5,0.5 -0.8,0.4 -0.9,-0.2 -0.8,0.4 -0.9,1.1 -0.1,0.9 0.3,2 -0.4,2.7 -0.3,0.3 -0.6,0.5 -0.4,1 0.2,0.5 0.7,0.3 1,0.3 3.6,-0.1 7.2,0.3 10.8,0.1 2.3,-0.1 4.7,0.1 7.1,0.1 2.1,0 4.3,-0.3 6.5,-0.9 -2.9,-0.2 -5.5,-0.4 -8.1,-0.5 -4,-0.2 -8,-0.7 -11.9,0 -0.9,0.2 -1.8,-0.1 -2.7,-0.5 2.4,-0.8 4.8,-0.6 7.3,-1.1 -2.7,-1 -5.2,-0.8 -7.6,-0.8 z m 10.4,-110.8 c 1.3,-4.8 2.3,-9.5 3.7,-14 2.8,-8.9 5.8,-17.8 8,-26.8 0.6,-2.2 0.2,-4.4 0.2,-6.7 -1,2.5 -1.9,5.1 -2.8,7.7 -3,8.5 -5.1,17.2 -7.5,25.9 -1.2,4.4 -2.2,8.9 -1.6,13.9 z m 55.7,169.5 c -0.7,-0.8 -1.4,-1.5 -2.5,-1.8 -1.4,-0.4 -2.5,-1.7 -4,-2 -0.6,-0.1 -1.2,-0.4 -1.5,0.3 -0.3,0.5 -0.2,1.2 0.3,1.5 1.3,1 2.3,2.2 3.7,3.1 2.1,1.3 4.1,2.7 6.1,4.3 -1.8,0 -3.3,0.1 -4.9,0 -1.5,-0.1 -3,-0.3 -4.7,-0.5 2.2,1.4 3.8,1.9 6.1,1.9 3.3,0 6.5,-0.1 9.8,0 2.7,0.1 3.7,-2 4,-4.2 0.2,-1.6 -1.1,-2.7 -0.8,-4.2 -0.1,0 -0.2,0 -0.2,0.1 -1,1.8 -1.8,3.8 -4.1,4.5 -1,0.3 -1.8,0.6 -2.7,0.2 -0.6,-0.3 -1.3,-0.5 -1.9,-0.8 -1.3,-0.5 -2.5,-1 -3.8,-1.5 0.4,-0.6 1,-0.4 1.1,-0.9 z M 255,716.3 c -0.1,2 -0.2,4.2 -1.3,6 -0.5,0.9 -0.9,1.8 -1,2.8 -0.2,1.9 -1.3,3.5 -1.8,5.3 -0.1,0.3 -0.3,0.4 -0.6,0.6 -2.2,1.6 -4.3,3.3 -4.1,6.5 0,0.6 0,1.3 -0.1,1.9 0,0.2 0.1,0.5 -0.2,0.6 -0.4,0.1 -0.4,-0.2 -0.5,-0.5 -0.1,-0.8 -0.5,-1.4 -1.4,-1.5 -0.7,-0.1 -0.2,-0.7 -0.4,-1 -1.2,1.9 -3,2.4 -5,2.1 -0.9,-0.2 -2.2,0 -2.6,0.4 -0.4,0.5 -0.9,0.6 -1.4,0.6 -0.7,0 -1.4,0.2 -2.2,0.4 1,1 1.9,1.8 3.4,1.5 -0.4,1.1 -1.1,1.8 -1.4,2.8 2,-0.5 3.6,-1.3 4.9,-2.8 0.4,-0.5 1,-0.6 1.5,-0.4 0.4,0.2 0.2,0.8 0.2,1.2 0,0.6 0,1.2 0,1.8 0.1,0 0.2,0 0.3,0 0.8,-1.5 1.6,-2.9 2.4,-4.5 0.8,1.7 1.8,2.2 3.3,1.8 1.3,-0.4 0.8,-1.5 0.9,-2.4 0,-0.2 0,-0.4 0,-0.6 0.2,-2.1 0.4,-4.2 2.4,-5.6 0.7,-0.4 1.6,-0.7 2,-1.6 0.7,-1.7 1.6,-3.3 2,-5 0.7,-3.4 1.3,-7 0.7,-10.4 z M 215.9,527.6 c -0.7,-2.3 -1.7,-3.9 -2.8,-5.5 -0.1,-0.2 -0.2,-0.3 -0.4,-0.3 -1.6,0 -3.2,-0.2 -4.8,0 -1.8,0.2 -2.2,2 -2.7,3.3 -0.6,1.7 -1.5,3 -2.6,4.3 -0.4,0.5 -0.8,0.9 -1.1,1.7 1.1,-0.6 2.5,-0.3 3.4,-1.2 0.8,-0.8 1.9,-1.3 3,-1.5 1.8,-0.4 3.5,-0.7 5.3,-1 0.8,-0.3 1.6,-0.4 2.7,0.2 z M 193.3,728 c -0.2,-1.3 -0.4,-1.5 -1.1,-1.4 -2.8,0.3 -5.5,0.8 -8.3,0 -0.5,-0.2 -0.9,-0.1 -0.7,0.7 0.3,1.2 1.1,1.5 2.1,1.5 0.8,0.1 1.7,0 2.5,0 -0.1,0.4 -0.9,0.5 -0.7,1 0.3,0.4 0.9,0.7 1.4,0.7 0.3,0 0.7,-0.1 1,-0.1 0.7,-0.1 1.4,-0.3 2.1,-0.3 1.6,0.2 2.9,-0.6 4.3,-1 0.7,-0.2 1.4,-1.8 1.1,-2.2 -0.5,-0.5 -0.1,-0.6 0.1,-0.9 0.9,-0.9 1.9,-1.8 2.8,-2.7 -1.9,0.8 -3.7,1.9 -5.4,2.9 -0.2,0.1 -0.4,0.2 -0.3,0.5 0.5,1.1 -0.4,1.1 -0.9,1.3 z m 8.9,-208.5 c -1.6,2.5 -3.5,4.6 -5.4,6.8 -0.4,0.4 -0.5,0.9 -0.6,1.5 -0.2,2.4 -0.4,4.9 -0.8,7.3 -1.3,8 -3.2,15.9 -4.1,23.9 -0.1,0.5 -0.4,1.3 0.1,1.4 0.7,0.1 0.7,-0.8 0.7,-1.4 0,-0.1 0,-0.2 0,-0.4 0.3,-4.8 1.4,-9.4 1.9,-14.1 0.4,-3.1 1.3,-6.1 2.1,-9.1 0.4,-1.3 0.1,-2.9 1.4,-3.8 0.1,0 0.1,-0.3 0,-0.4 -0.4,-0.7 0,-1.2 0.1,-1.8 0.2,-0.7 0.5,-1.3 0.6,-1.9 0.5,-2.2 1.7,-3.9 3.4,-5.2 0.3,-0.2 0.5,-0.5 0.5,-0.9 0,-0.6 0.1,-1.3 0.1,-1.9 z m 51.1,89.6 c 1.2,-0.5 2,-1.4 3.1,-1.7 0.5,-0.1 0.8,-1 0.8,-1.6 0,-0.3 -0.1,-0.6 0.2,-1 0.7,1.1 1,2.3 1.2,3.5 0.2,1 0.9,0.8 1.5,0.8 0.8,0 0.4,-0.7 0.4,-1.1 0.1,-0.6 -0.3,-1 -0.5,-1.5 -0.6,-1.3 -1.5,-2.5 -1.4,-4.1 0,-0.2 0,-0.4 -0.3,-0.4 -1.1,-0.2 -2.3,-0.5 -3.4,-0.1 -0.9,0.4 -1.6,0.8 -1.6,2.1 0.3,1.6 0.1,3.2 0,5.1 z m -70.4,132.3 c 0,0.3 0,0.4 0.1,0.6 0,0.2 0.1,0.4 0.1,0.6 0.1,2.5 1.4,4.3 3.3,5.7 2.7,2 5.8,1.7 8.9,1.5 0.2,0 0.4,-0.1 0.5,-0.3 0.5,-1 1.4,-1.2 2.3,-1.1 0.2,0 0.5,0.1 0.6,-0.2 0,-0.2 -0.1,-0.4 -0.2,-0.5 -0.6,-0.8 -2.9,-1.2 -3.4,-0.4 -0.7,1 -1.6,0.8 -2.4,0.8 -2.1,0.2 -3.9,-0.2 -5.6,-1.5 -1.4,-1.1 -2.1,-2.9 -1.5,-4.1 -1,-0.4 -1.8,-0.7 -2.7,-1.1 z m 77,-77.2 c 3.5,7.2 5.4,14.9 7.8,22.6 0.2,-0.7 0,-1.2 0,-1.7 -0.5,-3.6 -1.8,-7 -3,-10.4 -0.5,-1.5 -1.1,-3.1 -1,-4.8 0.2,-1.8 -0.5,-3.4 -1,-5.1 -0.1,-0.3 -0.1,-0.7 -0.5,-0.6 -0.6,0.2 -1.4,-0.2 -2.3,0 z m 12.7,55 c 1.2,-0.4 2,-0.7 2.6,-1.2 0.5,-0.4 1.3,-0.4 1,-1.4 -0.2,-0.6 0.1,-1.4 -0.4,-1.9 -0.5,-0.5 -1.2,-0.9 0.2,-1 0.4,0 0.2,-0.4 0.1,-0.6 -0.7,-1.8 -1.5,-3.6 -2.2,-5.4 -0.2,-0.4 -0.5,-0.5 -0.9,-0.4 -0.4,0.2 -0.1,0.5 -0.1,0.8 0.2,0.7 0.7,1.4 0.5,2.2 -0.5,2.9 0.4,5.8 -0.8,8.9 z m -86.5,18.1 c -1.3,-0.9 -2.6,-1.4 -3.1,-2.6 -0.8,-2 -1.9,-1.6 -3.3,-1 -0.6,0.2 -0.7,0.4 -0.7,1 0.1,1.9 1.5,3 2.8,4 0.1,0.1 0.3,0.2 0.4,0 1,-0.8 2.4,-0.9 3.9,-1.4 z M 226.9,681 c 2.4,-1.9 4.8,-3.7 7.2,-5.7 0.6,-0.5 1.3,-0.2 1.7,-0.8 0.9,-1.2 1.7,-2.4 2.6,-3.6 -0.6,0 -1.1,0.4 -1.6,0.4 -0.7,0.1 -0.4,0.9 -1.1,1 -1.6,0.3 -3.1,0.7 -3.7,2.6 -0.3,0.7 -1.1,1.2 -1.6,1.8 -1.3,1.5 -2.7,2.6 -3.5,4.3 z m 7.7,-63.8 c 1.5,-4.8 4,-9 5,-13.7 -0.4,1.1 -1.4,1.7 -2,2.8 -1.3,2.5 -2.4,5 -3.5,7.5 -0.3,1 -0.3,2.1 0.5,3.4 z m -46,-33.3 c 2.9,-3.9 3,-8.6 3.1,-13.4 -0.2,0.4 -0.3,0.7 -0.4,0.9 -0.7,2.8 -1.6,5.6 -2.8,8.2 -0.5,1.6 -0.4,2.9 0.1,4.3 z m 11,120.4 c -3,3.6 -6.1,7.1 -8.5,11.2 4.5,-2.3 6.5,-6.7 8.5,-11.2 z m -23.1,-86.5 c 0.7,-3.2 1.3,-6.1 2,-9 0.2,-0.8 0.1,-1.5 -0.4,-2.3 -0.1,0.4 -0.2,0.7 -0.3,0.9 -0.6,2 -0.7,4.1 -1.4,6 -0.6,1.6 -0.3,2.8 0.1,4.4 z m -4.3,94.8 c 0.4,-0.3 0.3,-0.6 0.3,-1 0.1,-2.1 0.2,-4.2 0.2,-6.3 0,-1.8 0.4,-3.5 0.4,-5.2 0,-0.4 0.1,-0.9 -0.5,-0.9 -0.7,0 -1.4,0 -2.3,0 0.5,0.3 1.1,0.2 1.4,0.5 0.4,0.4 0.9,3.7 0.5,4.1 -0.4,0.4 -0.4,0.8 -0.4,1.3 0,2.1 0,4.2 0,6.3 0,0.4 -0.2,0.9 0.4,1.2 z m 81.1,27.9 c 1.2,-1.1 2.3,-2.1 3.5,-2.9 0.4,-0.3 0.4,-0.7 0.3,-1 -0.3,-0.8 -1,-1.2 -1.8,-1.4 -0.4,-0.1 -0.6,0.2 -0.8,0.6 -0.3,1.4 -0.9,2.9 -1.2,4.7 z m -66.2,-15.8 c 2.1,0.2 3.9,0.1 5.7,-0.5 1.6,-0.5 1.8,-0.7 1.4,-2.7 -2.1,1.5 -4.5,2.2 -7.1,3.2 z m -11.5,-25.5 c 1.3,0.6 3,0.9 3.6,0.5 0.7,-0.5 1.2,-0.3 1.8,0.3 0.6,0.5 1.3,1 2,0.1 0.5,-0.6 1.2,-0.5 1.7,0 0.2,0.2 0.3,0.6 0.7,0.4 0.7,-0.4 1.4,-0.7 2.1,-1 0,-0.1 0,-0.1 -0.1,-0.2 -3.7,-0.1 -7.6,-0.1 -11.8,-0.1 z m 19.7,-3.8 c -3.5,-0.1 -6.8,0.3 -10,1 2.6,0.1 5.3,0 7.9,0.3 0.9,0.2 1.6,-0.2 2.1,-1.3 z m 35.4,-81.5 c -0.6,1.3 -1,2.3 -0.9,3.5 0.1,1.3 0,2.7 0,4 0,0.3 0,0.7 0.1,1 0.1,0.2 0.3,0.4 0.5,0.1 0.4,-0.6 0.9,-1.2 0.7,-1.9 -0.5,-2.1 -0.4,-4.2 -0.4,-6.7 z m 27.7,102.4 c 0.6,-4.4 0.7,-8.8 0.5,-13.2 -1.2,4.3 -0.1,8.8 -0.5,13.2 z M 200.6,627 c -1.7,-2.7 -2.8,-5.7 -4.6,-8.6 0.5,3.2 2.7,7.5 4.6,8.6 z m -4.7,87.7 c -2.7,2.5 -5.8,4.2 -8.6,6.9 1,-0.2 1.7,-0.3 2.2,-1 0.6,-0.8 1.4,-1.4 2.3,-1.9 0.9,-0.5 1.8,-1.1 2.8,-1.7 0.8,-0.5 1.2,-1.3 1.3,-2.3 z m 58,-39.8 c 1,-1.1 1.5,-2.5 2.9,-3 0.4,-0.2 0.2,-0.5 0.1,-0.8 -0.1,-0.2 -0.1,-0.6 -0.6,-0.5 -2.3,0.3 -2.3,0.2 -2.4,2.7 0,0.4 0,0.9 0,1.6 z m -48.2,37.8 c -2.1,1.3 -4.2,2.8 -6.4,4 -0.6,0.4 -0.9,1 -1.2,1.8 2.8,-1.7 5.3,-3.6 7.6,-5.8 z m 34.2,-5.3 c 1.5,0.1 3.5,-4.1 2.7,-5.6 -0.9,1.9 -1.8,3.7 -2.7,5.6 z M 194.4,568.3 c 0.1,-1.2 0.4,-2.4 0.6,-3.7 0.2,-1.2 0.4,-2.4 0.5,-3.5 0.1,-0.5 -0.2,-1 -0.8,-1 -0.6,0 -0.3,0.5 -0.3,0.8 0,2.5 0,4.9 0,7.4 z m -26.8,114.5 c -0.8,-1.2 -2,-0.8 -3,-1 -1,-0.1 -1.5,0.4 -1.9,1.3 -0.1,0.2 -0.3,0.3 -0.1,0.5 0.2,0.2 0.4,0.2 0.6,-0.1 0.6,-0.8 1.4,-0.7 2.2,-0.7 0.7,0 1.5,0 2.2,0 z m 15.7,-57.6 c 0.1,0.9 -1.7,0.8 -0.9,2.1 0.6,0.8 1.2,1.4 2.1,1.4 0.3,-1.5 -0.7,-2.4 -1.2,-3.5 z m -10.4,46.9 c -0.8,-2.4 -2,-4.7 -2.4,-7.5 -0.6,3.3 0.9,5.4 2.4,7.5 z m 43,26.7 c 1.8,-1.2 3.8,-2.1 4.5,-4.7 -1.9,1.4 -3.3,2.9 -4.5,4.7 z m -21,22.5 c 0.8,-0.3 1.5,-0.7 2.3,-0.9 0.4,-0.1 0.8,-0.3 0.8,-0.9 0,-0.4 -0.1,-0.7 -0.5,-0.8 -0.6,-0.2 -0.9,0.1 -1.2,0.5 -0.5,0.7 -0.8,1.5 -1.4,2.1 z M 178.9,606 c 0.5,-1.9 0.8,-3.8 0.7,-5.7 -0.3,1.9 -1.5,3.6 -0.7,5.7 z m 54.9,-8.2 c 1.6,0.9 2.4,-0.5 3.5,-1.3 -1.5,-0.3 -2.7,0 -3.5,1.3 z m -14.7,153.9 c -0.5,-0.6 -1.2,-0.8 -1.3,-1.6 -0.2,-1 -1,-0.6 -1.5,-0.7 -0.2,0 -0.4,0.4 -0.5,0.7 -0.1,0.3 0.2,0.4 0.4,0.5 0.9,0.4 1.8,0.9 2.9,1.1 z M 212,629.1 c 1.5,0.8 2.8,0.4 4.1,-0.3 -1.5,-1.3 -2.7,0.5 -4.1,0.3 z m -16.4,61.6 c -1.1,-0.5 -2.1,-1 -3.2,-1.5 -0.4,-0.2 -0.6,0.1 -0.8,0.5 -0.1,0.3 0,0.5 0.3,0.6 1.3,0.2 2.4,0.6 3.7,0.4 z m 65.7,-30.2 c -0.4,-0.7 -0.8,-1.3 -1.3,-1.9 -0.3,-0.4 -0.7,-0.3 -1,-0.1 -0.4,0.2 -0.1,0.6 0,0.8 0.4,1 1.4,0.9 2.3,1.2 z m -49.5,44.6 c 2.4,-0.1 2.9,-0.5 3.5,-2.5 -1.2,0.8 -2.3,1.6 -3.5,2.5 z m 46,-134.6 c 0.2,-0.9 -1.1,-3.9 -1.7,-4.1 -0.1,0 -0.2,0 -0.3,0 -0.2,0.1 -0.1,0.3 0,0.4 0.6,1.3 1.2,2.5 2,3.7 z m -3.7,-0.8 c -0.4,-1.3 -2,-3.7 -2.8,-4.3 0.7,2.1 2,4.1 2.8,4.3 z m -21.6,98.7 c 1.1,-0.7 2.2,-1.3 3.5,-2 -2.2,-1.1 -2.4,1.2 -3.5,2 z m 17.4,-62.7 c 0.3,-1 0.7,-2 1,-3 -1.5,0.1 -1.5,0.1 -1,3 z m -17.7,1.5 c -0.8,0.5 -1.1,1.2 -1.5,1.7 -0.4,0.5 -0.1,1 0.3,1.2 0.4,0.2 0.7,-0.2 0.8,-0.6 0.1,-0.7 0.2,-1.5 0.4,-2.3 z m 14.5,64.5 c 0.6,-0.5 1.1,-0.9 1.9,-0.9 0.4,0 0.3,-0.4 0.3,-0.6 0,-0.3 0.1,-0.7 -0.3,-0.8 -0.3,-0.2 -0.5,0 -0.7,0.3 -0.3,0.6 -1,1.1 -1.2,2 z m -61.3,-55.5 c -0.6,0.6 -0.8,1.3 -0.9,2.1 -0.1,0.3 -0.1,0.7 0.4,0.7 0.4,0 0.5,-0.3 0.5,-0.5 0,-0.8 0,-1.6 0,-2.3 z m 58.1,25.9 c 0.1,-0.4 -0.2,-0.6 -0.4,-0.8 -0.3,-0.4 -0.5,-1 -1.1,-1 -0.1,0 -0.2,0.3 -0.3,0.5 -0.1,0.8 0.6,0.9 1,1.3 0.2,0 0.5,0.2 0.8,0 z m 6.4,102.3 c -0.6,0 -1,0.1 -1.4,0.1 -0.5,0 -0.5,0.4 -0.5,0.8 0,0.3 -0.1,0.6 0.2,0.7 0.4,0.1 0.5,-0.3 0.7,-0.5 0.3,-0.2 0.5,-0.5 1,-1.1 z m -72.6,-68.5 c -0.3,-0.3 -0.5,-0.7 -0.8,-1 -0.2,-0.2 -0.3,-0.6 -0.7,-0.5 -0.1,0 -0.1,0.3 -0.1,0.4 0,0.4 0,0.7 0.4,0.9 0.3,0.2 0.7,0.5 1.2,0.2 z M 188,627.7 c -0.1,1.5 0.4,2 1.8,2 -0.7,-0.6 -1.2,-1.2 -1.8,-2 z M 259.7,742 c 2.1,-0.6 2.5,-0.9 3.1,-2.1 -1,0.7 -2,1.4 -3.1,2.1 z"
   id="path16" />
		<path
   d="m 395,598.8 c 1.4,-1.2 1,-2.7 0.9,-4 -0.1,-0.8 0,-1.5 0.5,-2.1 3.4,-4.4 5.6,-9.4 8.6,-14 0.3,-0.4 0.8,-1 -0.1,-1.4 -0.4,-0.2 -0.3,-0.6 0,-0.9 2.5,-3.5 4.4,-7.4 8,-9.9 1.5,-1 2.8,-2.4 4.2,-3.5 0.5,-0.4 0.9,-1 1.4,-1.1 1.6,-0.2 1.1,-1.2 0.9,-2.1 -0.2,-0.7 -0.2,-1.4 -0.2,-2.1 0,-2.7 0,-2.7 -2.5,-3.7 -0.8,-0.3 -1.5,-0.5 -2.4,-0.4 -1.7,0.4 -3.3,-0.1 -4.8,-0.5 -1.9,-0.5 -2.9,-2 -3.3,-3.9 -0.4,-1.8 -0.1,-3.7 -0.5,-5.6 -0.3,-1.3 -0.6,-2.6 -1,-3.9 -0.4,-1.7 -0.6,-3.5 -0.6,-5.2 0,-0.6 0.1,-1.2 0.6,-1.6 1.2,-1 1.3,-1.8 0.4,-3 -0.4,-0.5 -0.5,-1 -0.2,-1.7 0.6,-1.3 1.1,-2.5 1.7,-3.8 0.5,-1.1 0.2,-1.8 -0.9,-2.1 -1.5,-0.4 -2,-1.6 -1.4,-3.1 0.1,-0.3 0.3,-0.5 0.4,-0.7 0.3,-0.7 0.6,-1.3 0.3,-2.3 -0.4,-1 0.3,-1.9 1.2,-2.5 0.3,-0.2 0.8,-0.2 0.8,-0.8 0,-1.2 0.9,-1.6 2,-1.6 0.6,0 1.1,0 1.7,0 0.5,0 1,0 1,-0.7 0,-0.7 1.1,0.2 1,-0.7 -0.1,-0.5 -0.2,-1 0.2,-1.4 0.3,-0.5 0.8,-0.6 1.4,-0.6 1.2,0.1 2.3,0.1 3.5,0.2 0.7,0.1 1.3,0.4 1.6,1.1 0.5,1.1 1.4,1.4 2.5,1.5 1.7,0.1 3.4,-0.3 5.1,0 2.1,0.3 3.8,1.4 5.6,2.2 1.2,0.5 2.2,1.3 3.4,1.9 1.4,0.8 2.4,1.9 2.8,3.4 0.1,0.3 0.4,0.5 0.6,0.7 0.9,1 1.8,2 2,3.4 0.2,1.5 1,1.8 3.1,1.8 1.4,0 1.8,0.3 1.7,1.6 -0.2,1.9 0.5,3.5 1.3,5.1 0.8,1.4 1.2,2.9 -0.2,4.3 -0.3,0.3 -0.2,0.6 -0.2,0.9 0,0.7 -0.1,1.3 -0.6,1.9 -0.5,0.6 -0.2,1.5 -0.2,2.2 0.1,1 -0.4,1.4 -1.3,1.6 -1.1,0.3 -2.2,0.1 -3.3,0.2 -0.9,0 -1.8,0.7 -2.7,-0.3 -0.3,-0.3 -0.8,0.7 -0.7,1.1 0.4,1.3 -0.3,1.8 -1.2,2.4 -1,0.6 -1.4,1.5 -1.8,2.6 -0.1,0.4 0,0.7 0.2,1 0.8,1.3 1.6,2.5 2.6,3.6 0.3,0.3 0.6,0.4 0.9,0.4 0.9,0 1.9,-0.1 2.8,0 1.5,0.2 2.8,-0.3 4,-1.2 1.3,-0.9 2.3,-0.5 2.9,1 0.7,1.9 1.7,3.1 4,3.2 1.3,0 2.4,1.2 3.4,2.1 2.5,2.2 4.5,4.9 6.5,7.5 1.4,1.9 2.2,4.3 1.4,6.9 -0.2,0.6 0,1.2 0.4,1.7 1.3,1.7 2.6,3.5 3.7,5.2 2,3.1 3.9,6.5 2.9,10.5 -0.7,2.8 -0.7,5.8 -1.8,8.5 -0.8,2 -2.2,3.5 -3.4,5.2 -0.9,1.2 -1.8,2.3 -1.9,4 -0.6,5.7 -0.1,11.4 -0.2,17.1 0,2.2 -1.2,3.8 -2.3,5.5 -0.2,0.3 -0.6,0.6 -0.7,1 -0.6,1.8 -1.5,3.4 -2.4,5.1 -0.3,0.5 -0.5,1.1 -0.1,1.6 1.9,2.4 2.2,5.4 2.8,8.2 1.2,6.2 1.9,12.4 1.5,18.7 -0.2,3.5 0.1,7 -0.7,10.5 -0.2,0.9 -1,1.8 -0.8,2.5 0.2,0.7 1.2,1.2 1.8,1.9 1.9,2.3 3.2,5 5.6,6.9 0.4,0.4 0.4,0.9 0.5,1.5 0.5,6.2 0.7,12.5 0.5,18.7 -0.1,2.2 -0.1,4.4 0.2,6.4 0.5,3.1 -1.5,5.2 -2.4,7.6 -0.1,0.4 -0.4,0.7 -0.7,1.1 0.7,0.2 1.3,0.2 1.9,-0.1 1.9,-0.8 3.3,0.3 4.6,1.2 1,0.7 0.7,1.9 0.5,3 -0.5,2.7 -1,5.3 -0.7,8.1 0.1,1.3 -0.3,2.2 -1.3,3.1 -1.6,1.3 -3.2,2.7 -4.5,4.3 -1.1,1.5 -2.6,2.2 -4.2,2.7 -4.4,1.5 -8.9,2.1 -13.4,0.4 -2,-0.8 -4.1,-1 -6.3,-0.5 -1.1,0.2 -2.4,-0.1 -3.5,0.2 -0.2,0.1 -0.5,0 -0.6,0.1 -1.3,1.5 -3,1.1 -4.6,1.1 -5,0 -9.9,0 -14.9,0 -1.2,0 -2.2,0.3 -3.1,1 -3,2.2 -6.2,2 -9.5,1.2 -0.7,-0.2 -1.3,-0.3 -2,0 -2,1 -4.2,0.7 -6.3,0.9 -3.7,0.3 -7.4,0.5 -11.1,0.7 -0.9,0 -1.8,-0.4 -2.6,-0.6 -3.8,-0.8 -5.9,-3.5 -7.8,-6.5 -0.8,-1.3 -1.7,-1.9 -3.2,-2.2 -2.8,-0.5 -5.3,-1.7 -8,-2.6 -1.5,-0.6 -2.6,-1.8 -3.8,-2.8 -0.4,-0.3 -0.5,-0.8 -0.5,-1.3 -0.1,-3.4 -0.3,-6.7 -0.5,-10.1 -0.1,-1.4 0.6,-2.5 1.3,-3.5 1.4,-2.4 2.8,-4.8 4.3,-7.2 0.3,-0.4 0.2,-0.8 0.1,-1.3 -0.3,-1.8 -0.5,-3.6 -0.8,-5.5 -0.1,-0.7 0,-1.4 0.2,-2.1 2.5,-9.5 5,-19.1 7.5,-28.6 0.8,-2.9 0.7,-5.9 1,-8.8 0.6,-6 1.1,-12 1.6,-18 0.3,-3.8 0.4,-7.6 1.1,-11.3 0.6,-3.4 0.2,-6.8 0.5,-10.3 0.1,-1.2 0.1,-2.5 1.3,-3.2 2.1,-1.2 2.2,-3 1.9,-5 -0.3,-2 -0.3,-1.9 -2.2,-2.2 -1.9,-0.3 -3.9,-0.6 -5.8,-0.9 -1.1,-0.2 -2.2,0.2 -3.4,0.2 -2.1,0 -4.1,-0.2 -6.2,0.2 -1.5,0.3 -2.9,0 -3.7,-1.7 -0.3,-0.7 -1.3,-1.1 -1.8,-1.7 -0.4,-0.4 -0.5,0.1 -0.6,0.4 -0.4,1.5 -1.3,2.7 -2.1,4 -0.3,0.4 -0.5,0.7 -1,0.8 -1.4,0.5 -1.9,0.1 -1.9,-1.3 0.1,-1.9 0.6,-3.7 1.6,-5.3 0.2,-0.3 0.4,-0.7 0.8,-0.9 0.6,-0.2 1.5,-0.2 0.9,-1.3 -0.3,-0.5 0.1,-1.3 -0.8,-1.7 -0.9,-0.4 -0.9,-1.6 -0.3,-2.8 0.9,-1.6 1.8,-3.2 2.3,-5 0.4,-1.6 2.1,-2.4 3.7,-1.9 1,0.3 2.7,-0.3 3,-1.1 1.8,-4.4 4.4,-8.4 6.5,-12.7 1.7,-3.5 3.5,-7.1 5.5,-10.5 0.2,-0.3 0.4,-0.7 0.7,-1 -0.9,3.5 -1.5,7.2 -2.5,10.7 -0.2,0.8 -0.8,1.6 -1.3,2.3 -2.1,3.2 -3.2,6.8 -4.3,10.4 -0.1,0.5 -0.1,0.8 0.5,0.9 0.8,0.2 1.6,0.5 2.5,0.5 0.9,0 2.2,1.2 2.5,2.1 0.3,1.1 0.8,1.9 2,2.2 0.6,0.1 1,0.7 1.6,1 1.5,1 2.7,0.6 3.6,-1 0.7,-1.2 1.9,-2 2.9,-2.9 0.1,0 0.2,0 0.3,0 1.5,0.4 3.2,0.7 4.6,1.3 1.5,0.7 3,0.6 4.5,0.9 1.1,0.2 2.2,0.4 3.3,0.6 1.5,0.3 2.1,-0.7 2.5,-1.7 1.2,-3.2 3.3,-6 4.8,-9.1 0.5,-1 1.2,-1.9 1.7,-2.9 0.6,-1.2 1.4,-2.5 1,-4 -0.1,-0.2 -0.2,-0.4 -0.3,-0.6 -0.3,0 -0.5,0.3 -0.5,0.4 0.2,1.5 -0.8,2.5 -1.5,3.7 -1.8,2.8 -3.6,5.7 -5.4,8.5 -0.1,0.2 -0.3,0.4 -0.4,0.7 -0.2,1.9 -1.1,2.8 -3.4,3.1 z m 36,-58 c -0.8,0.4 -1.5,0.2 -1.8,-0.5 -0.3,-0.7 0.2,-2.3 0.7,-2.5 0.9,-0.4 1.4,-1.1 2.1,-1.8 0.3,-0.3 0.2,-0.5 -0.1,-0.6 -0.3,-0.1 -0.6,-0.3 -0.8,-0.5 -0.6,-0.4 -1,-0.6 -1,0.4 0,0.5 -0.4,1.2 -1,0.9 -0.7,-0.4 -1.5,-0.4 -2.1,-1.1 -0.5,-0.6 -1.3,-0.8 -2.2,-0.9 -1.2,0 -2.3,-0.5 -2.7,-1.8 -0.2,-0.6 -0.5,-0.4 -1,-0.5 -1.2,-0.1 -2.4,-0.1 -3.4,-1 -0.8,-0.7 -1.3,-1.7 -2.2,-2.2 -0.2,-0.1 -0.2,-0.3 -0.1,-0.5 0.4,-0.8 -0.1,-1.5 0.1,-2.6 -2.2,1.9 -3.6,1.1 -4.6,-1.2 -0.5,0.7 -0.9,1.1 -1.6,1.3 -0.8,0.2 -1.1,1.3 -0.6,1.4 1,0.3 1.4,1.3 2.4,1.7 0.5,0.2 1,0.7 1,1.3 0,0.9 0.2,1.8 0,2.7 -0.2,0.9 -0.7,1.5 -1.1,2.1 -1,1.6 -1.1,3.7 -2.2,5.2 -0.3,0.4 -0.4,1.1 0.2,1.1 1,0 1.8,0.7 2.8,0.6 0.8,-0.1 0.8,0.2 0.6,0.9 -0.5,1.4 0.2,2.7 1.6,3.1 0.5,0.2 1,0.3 1.3,1 -1.2,0.1 -2.3,0 -3.2,0.9 -0.7,0.7 -1.4,0.6 -1.8,-0.3 -0.1,-0.3 0.1,-0.7 -0.4,-0.8 -1.3,2.5 -0.5,4 2.2,4.1 0.7,0 1.4,0 2.2,0 1.1,0.1 2.2,0.2 3.3,0.6 0.6,0.2 1.1,0.4 1.8,0.3 1,-0.2 1.4,0.3 1.4,1.2 0,1.1 0.4,2.2 1,3.2 0.6,1.2 1.5,2.3 1.5,3.7 0,0.8 0.3,1 1.1,1 1.3,0 2.6,0 4,0 0.2,0 0.5,0 0.7,-0.1 1.7,-1.1 3.2,-2.5 4.5,-4 1.7,-2 1.9,-3.9 0.1,-5.9 -0.8,-0.9 -0.6,-2.4 -2,-3.2 -0.8,-0.4 -1.5,-1 -2.4,-1.2 -0.7,-0.1 -1.9,-1.6 -1.6,-2.1 0.3,-0.6 1.1,-0.2 1.6,-0.3 0.1,0 0.3,0 0.5,0 1.9,0 2.2,-0.2 2.9,-2.1 -0.3,-0.2 -0.5,-0.1 -0.8,0 -0.3,0.1 -0.7,0.3 -0.9,0 -0.2,-0.3 0.2,-0.5 0.3,-0.8 -0.3,0.1 -0.3,0 -0.3,-0.2 1,0.2 2.1,0.8 2.5,-0.8 0.1,-0.3 0.6,-0.5 0.2,-0.8 -0.3,-0.3 -0.6,0 -0.9,0.3 -0.4,0.7 -0.9,1.3 -1.8,1.3 z m -24.5,36.9 c 0.6,0.1 1.2,0.1 1.2,1 0,0.5 0.2,1.1 0.5,1.6 0.6,1.4 1.5,2.8 1.8,4.3 0.4,1.7 1.4,2.5 2.7,3.2 1.6,0.9 3.4,1.7 5,2.5 0.7,0.3 1.3,0.5 2.1,0.4 2.7,-0.3 5.5,-0.6 8.2,-0.8 1.1,-0.1 2.2,-0.2 3.3,-0.3 0.5,0 1,0 1.2,0.5 0.3,0.6 -0.4,0.7 -0.7,0.9 -1.1,0.8 -2.3,1.6 -3.4,2.5 -0.8,0.6 -1.6,0.8 -2.7,0.7 -4.1,-0.6 -8,-1.7 -11.9,-3.2 -0.5,-0.2 -1,-0.5 -1.3,0.4 -0.8,2 -1.8,3.9 -2.6,5.9 -0.2,0.5 -0.5,1.1 -0.3,1.5 0.5,0.6 0.1,0.9 -0.1,1.3 -0.8,1.4 -0.5,2.4 0.9,3.3 1,0.6 1.1,0.2 1.3,-0.7 0.5,-2.3 1,-4.5 1.5,-6.8 0,-0.2 0,-0.6 0.5,-0.6 -0.1,1.6 -0.2,3.2 0.9,4.5 0.1,0.2 0,0.5 0,0.8 -0.4,2.5 -0.4,2.5 2.1,2.8 0.2,0 0.4,0 0.6,0 0.6,-0.1 0.8,0.2 0.9,0.7 0.1,0.4 0.4,0.7 0.5,1.1 0.5,0.9 1,1.1 2,0.4 3,-2 5.9,-4.1 9.5,-4.9 0.6,-0.1 1.3,-0.9 1.7,-0.4 0.5,0.7 -0.3,1.3 -0.8,1.8 -1.2,1.4 -2.4,2.8 -3.7,4.4 1.4,0.2 2.7,0.5 3.6,-0.1 1.1,-0.7 2.1,-0.5 3.2,-0.4 2.4,0.2 4.7,-0.2 6.6,-1.7 1.6,-1.2 3.5,-1 5.3,-1.1 -1.4,0 -2.1,0.6 -2.3,1.9 -0.1,0.5 -0.6,0.8 -1,1.1 -2.3,1.5 -4.7,2.6 -7.6,2.4 0.2,0.6 0.6,0.7 0.9,1 2.1,1.8 4.3,3.3 6.3,5.2 0.6,0.6 1.1,1.2 1.4,1.9 0.6,1.3 0,2.4 -1.4,2.7 -1.2,0.2 -2.3,0.2 -3.4,-0.2 -4.1,-1.3 -8.2,-2.6 -12.2,-4.3 -0.3,-0.1 -0.6,-0.2 -0.7,-0.4 -1.4,-1.7 -3.4,-2.9 -4.5,-4.9 -0.3,-0.5 -0.6,-0.5 -1.2,-0.4 -3.5,0.5 -7,0.7 -10.4,-0.4 -1.9,-0.6 -3.8,-1.4 -5.5,-2.4 -1.7,-1 -4.1,-0.1 -5.4,-2 -0.1,-0.1 -0.4,-0.2 -0.5,-0.2 -0.7,-0.1 -1.2,-0.4 -1.7,-0.9 -0.5,-0.5 -1.5,-0.7 -2.2,-0.2 -0.8,0.5 -1.5,0.4 -2.2,0.1 -2.4,-1 -4.9,-1.5 -7.3,-2.3 -0.6,-0.2 -0.8,-0.1 -0.9,0.6 -0.1,6.5 0.1,13 1.9,19.4 0.2,0.7 0.3,1.4 0.5,2.1 0.6,2.2 0.8,4.5 1.4,6.7 0.5,1.7 1.6,3 2,4.7 0.2,0.7 0.6,1 1.4,1.1 2.5,0.5 5.1,1.1 7.6,1.6 1.1,0.2 2.1,0.9 3.3,0.9 4.4,-0.2 8.7,0.2 13,1.3 1.5,0.3 3.8,1 4.8,-1.5 0,-0.1 0.2,-0.2 0.3,-0.2 1,0 1.5,-0.6 1.8,-1.5 0.7,0.9 1.6,1 2.6,1.1 -0.2,-0.3 -0.3,-0.5 -0.4,-0.6 -0.6,-0.9 -1.3,-1.7 -2.1,-2.5 -0.2,-0.2 -0.4,-0.5 -0.2,-0.7 0.2,-0.2 0.4,0 0.6,0.1 0.9,0.3 1.7,0.6 2.6,0.9 2,0.6 3.9,1.3 6.4,1.6 -1.5,-1.4 -2.6,-2.8 -4.5,-3 -1.3,-0.2 -2.8,-0.2 -3.6,-1.7 -0.1,-0.2 -0.4,-0.3 -0.6,-0.4 -2.2,-0.4 -3.9,-1.9 -6.1,-2.3 -0.8,-0.1 -1.5,-0.3 -1.9,-1.5 -0.9,-2.6 -2.8,-4.7 -4.2,-7 -1,-1.6 -0.4,-2.9 -0.5,-4.4 0.8,1.3 2.3,2 2.9,3.4 0.5,1 1.1,1.7 1.9,2.4 2.7,2.1 5.7,3.7 8.2,6 0.2,0.2 0.5,0.3 0.8,0.3 2.4,0.6 4.7,1.3 7.1,1.6 0.9,0.1 1.9,0.2 2.4,1.2 0.1,0.2 0.4,0.2 0.8,0 -2.6,-2.7 -5.6,-4.8 -8.2,-7.7 2,-0.2 3.5,0.2 4.7,1 1.8,1.2 3.2,3 5.4,3.6 1,0.3 1.8,1.3 2.7,2 0.8,0.6 2.5,0.4 3,-0.4 0.9,-1.2 2,-1.2 3,0.1 0.7,0.9 1.5,0.6 2.3,0.5 0.7,-0.1 0.2,-0.9 0.3,-1.3 0.1,-0.3 -0.1,-0.5 0.2,-0.9 0.6,1 2.2,0.8 2.7,2.3 0.1,0.2 1.5,0.5 2.1,-0.3 0.4,-0.6 0.7,-1.3 0.9,-2 0.1,-0.3 -0.6,-0.3 -1,-0.6 -0.1,-0.1 -0.3,-0.2 -0.3,-0.3 -0.3,-1.3 -1.3,-2.4 -1.6,-3.7 0.6,-0.2 1.1,0 1.6,0.2 1.7,0.5 3.4,1.2 5.3,0.9 0.4,0 0.7,0.1 0.9,0.5 0.3,0.5 0.5,0.4 0.7,-0.1 0.8,-1.3 1.3,-2.7 1.8,-4.2 0.1,-0.4 0.1,-0.7 -0.2,-1 -0.8,-0.7 -0.7,-1.5 -0.1,-2.2 0.3,-0.4 0.7,-0.7 0.8,-1.2 0,-1.4 0,-2.8 0,-4.3 -0.6,0.3 -0.6,0.8 -0.8,1.1 -0.3,0.5 -1.8,0.8 -2.4,0.5 -0.7,-0.4 -0.3,-1 -0.1,-1.5 0.5,-1 1,-2 1.4,-3 0.2,-0.4 0.6,-0.8 0.5,-1.3 -0.3,-1.2 -0.1,-2.5 -0.1,-3.7 0,-0.6 0.1,-1.2 -0.3,-1.7 -0.7,-0.9 -0.2,-1.6 0.6,-2.1 0.8,-0.5 1.5,-1 2.3,-1.3 2.8,-1 3.9,-3 4.4,-5.9 0.5,-3 0.9,-5.9 1.5,-8.8 0.2,-0.9 0,-1.9 -0.8,-2.6 -1.4,-1.2 -3.2,-1.7 -4.9,-2.1 -0.7,-0.2 -1.2,-0.5 -1.1,-1.3 0.1,-3.2 -0.6,-6.3 -0.1,-9.4 0.1,-0.8 0,-1.5 -0.6,-2.1 -1.2,-1.3 -2.3,-2.6 -3.5,-3.9 -0.9,-1 -1.9,-1.9 -2.8,-2.9 -0.1,0.1 -0.2,0.2 -0.2,0.2 1,1.5 2.3,2.8 3.5,4.2 1.2,1.4 1.3,2.8 1,4.5 -0.2,0 -0.3,0 -0.5,-0.1 -2.2,-0.6 -3.8,-2.6 -6.1,-3 -0.2,0 -0.2,-0.3 -0.3,-0.4 -0.3,-0.7 -0.7,-1.3 -0.7,-2.2 0,-0.3 -0.6,-0.3 -0.9,-0.3 -0.6,0 -1.3,0 -1.9,0 -0.3,0 -0.7,0.2 -0.8,-0.3 -0.1,-0.4 0,-0.7 0.4,-0.9 0.5,-0.3 1,-0.7 1.5,-0.9 0.6,-0.3 0.7,-0.9 0.7,-1.4 0,-0.5 -0.6,-0.4 -0.9,-0.5 -1.7,-0.3 -2.9,-1.1 -3.1,-3 -0.1,-0.7 -0.4,-0.7 -1,-0.5 -1.1,0.4 -1.6,1.3 -2.1,2.2 -0.4,0.6 -0.7,1 -1.3,1.3 -1.3,0.5 -2.4,1.3 -3.5,2.1 -1.3,0.9 -2.6,1.7 -4,2.3 -1,0.4 -2,0 -2.9,0.6 -2,1.3 -4.3,1.9 -6.1,3.5 -1,0.8 -2,1.1 -3.1,0.1 -0.2,-0.2 -0.5,-0.3 -0.8,-0.3 -0.8,-0.2 -1.1,-0.7 -1.2,-1.5 -0.1,-0.3 0.1,-0.7 -0.3,-1 -0.7,0.6 -1.9,0.9 -0.7,2.1 0.1,0.1 0.1,0.4 0,0.6 -0.4,0.6 -0.1,1.2 0,1.7 0,0.4 0.1,1 -0.1,1.3 -1,1.3 -0.4,3.2 -1.5,4.5 0.4,-0.3 0.7,-0.6 1.1,-0.9 0.3,0.4 0.5,1 0.8,1.2 1,0.6 1.1,1.5 1.3,2.5 0,0.3 0.1,0.6 0.2,0.9 0.2,0.8 0.2,1.8 1.4,1.6 0.3,0 0.5,0.2 0.5,0.5 0.1,1.4 -1.5,2.7 -2.9,2.4 -1.7,-0.4 -3.3,-0.9 -5,-1.2 -0.9,-0.2 -1.5,-0.7 -2.2,-1.4 -0.7,-0.8 -0.5,-1.1 0.4,-1.2 -0.3,-0.8 -1,-0.6 -1.7,-0.8 1,-1.5 1.9,-2.8 2.8,-4.2 -1.3,0.5 -2.5,1.2 -3.6,1.9 -0.6,0.4 -1.3,0.6 -1.9,0.1 -0.8,-0.7 -1.2,0 -1.6,0.4 -0.4,0.6 -0.6,1 -0.9,1.5 z m 19.9,130.7 c 0.9,1.1 1.7,2 3.3,1.8 0.2,0 0.5,0 0.7,0.2 2.2,1.5 5,1.6 7.2,3.1 2.2,1.5 4.7,2.5 7.1,3.7 1.7,0.8 3.2,1.8 4.3,3.3 0.4,0.6 1,0.7 1.6,0.7 2.1,0 4.2,0 6.4,0 0.5,0 1,-0.1 1.4,-0.5 2.1,-1.8 4.2,-3.5 6.2,-5.3 2.4,-2.1 3.3,-5.7 2.2,-8.2 -1.2,-2.6 -1.5,-5.4 -1.9,-8.2 -0.1,-0.4 -0.1,-1.1 0.1,-1.3 0.7,-0.6 0.3,-1.3 0.3,-2 -0.1,-3.3 -0.7,-6.4 -2.3,-9.1 0,-0.1 0,0 0,0.1 0,0.3 0,0.6 0,1 0.2,6.9 -2.5,12.8 -6.5,18.2 -0.8,1.1 -1.8,2 -2.8,3 -1.8,1.7 -4.2,2.3 -6.4,2.6 -1.9,0.3 -3.8,0.4 -5.5,1.3 -0.4,0.2 -0.9,0.3 -1.4,0.4 -0.8,0.2 -1.7,0.3 -2.4,-0.3 -0.6,-0.6 -0.3,-1.3 0.1,-2.1 -0.6,0.3 -1.1,0.5 -1.5,0.6 -1.3,0.4 -1.9,0.1 -2.1,-1.2 -0.1,-0.4 -0.3,-0.5 -0.6,-0.6 -0.4,-0.2 -0.9,-0.5 -0.8,-0.9 0.1,-0.5 0.6,-0.4 1,-0.5 2.5,-0.8 5.1,-1.5 5.3,-4.9 0,-0.3 0.2,-0.7 0.4,-1 1,-1.7 1.3,-3.6 1.2,-5.5 0,-2.1 0,-4.2 0,-6.4 0,-0.9 0.3,-1.8 -1,-2.2 -0.4,-0.1 -0.4,-0.7 -0.6,-1 -0.5,1.1 -1,2.1 -1.4,3.1 -0.4,1.1 -1.1,1.8 -2,2.5 -0.3,0.2 -0.6,0.6 -0.9,0.5 -0.4,-0.2 -0.2,-0.6 -0.2,-1 -0.2,-1.3 0.4,-2.6 0.4,-3.9 0,-1.7 -0.2,-3.4 -0.1,-5.1 0.1,-1.7 0.1,-3.4 -0.4,-5.1 -0.4,-1.5 -0.1,-3.2 -0.1,-4.8 0.1,-3.7 -0.1,-7.1 -1.7,-10.6 -1.3,-2.8 -2.6,-5.5 -5,-7.6 -0.5,-0.4 -1,-1 -1.6,-0.7 -0.5,0.3 -0.1,1 -0.1,1.6 0.1,1.2 0.8,2.4 0.7,3.7 -1.5,-0.7 -2.8,-1.5 -3.7,-2.9 -0.5,-0.7 -1.1,-1.3 -1.8,-1.7 -1.9,-1 -3.3,-2.5 -4.5,-4.3 -0.6,-0.9 -1,-2.1 -2.2,-2.5 -1.4,-0.4 -2.7,-1.2 -3.3,-2.2 -1,-1.7 -2.8,-2 -4.2,-2.6 -1.6,-0.7 -3.3,-1.1 -4.7,-2.2 -0.1,-0.1 -0.3,0 -0.4,-0.1 -0.1,0.4 0.5,0.7 0,1.1 -2.2,-1.6 -4.9,-1.8 -7.5,-2.3 -0.7,-0.1 -1.5,-0.1 -2.1,-0.4 -1.7,-0.6 -3.3,-1.4 -4.1,-3.2 -1.5,-3.1 -3.5,-5.9 -4.8,-9.1 -0.4,4 -0.7,8 -0.8,11.9 -0.2,4.8 -0.1,9.5 -0.2,14.3 0,0.5 0,1 -0.2,1.5 -0.6,2.3 -1,4.6 -1.9,6.8 -0.7,1.8 -1,3.9 -1.4,5.8 -1,4.9 -2.8,9.7 -1.6,14.8 0.5,1.9 0.5,3.9 0.9,5.9 1.1,5.3 3,10.3 5.1,15.2 0.2,0.4 0.4,0.8 0.7,1.1 2.8,3.3 5.6,6.5 8.4,9.8 0.2,0.2 0.3,0.6 0.6,0.5 0.3,-0.1 0.3,-0.5 0.3,-0.7 0,-2.7 -0.8,-5.2 -2,-7.5 -0.8,-1.3 -1.9,-2.4 -2.4,-4 -0.7,-2.2 -1.8,-4.3 -3.3,-6.1 -0.8,-1 -1.5,-2.1 -1.7,-3.4 -0.3,-2.8 -0.6,-5.6 -0.8,-8.3 -0.3,-4.7 0.6,-9.3 1.8,-13.9 0.2,-0.7 0.2,-1.5 0.7,-2.3 0.9,4.2 1.2,8.3 1.3,12.3 0.1,3.2 0.5,6.3 1.3,9.3 1.1,4.3 2.9,8.3 5.6,11.8 3.4,4.4 6.9,8.6 10.2,13 1.8,2.3 4.4,3.2 6.8,4.8 0.3,-1.6 0.1,-2.9 -0.9,-4 -0.6,-0.7 -1.2,-1.4 -1.6,-2.2 -0.4,-0.7 -0.8,-1 -1.6,-1 -0.9,0 -1.5,-0.5 -2.1,-1.2 -2.4,-2.5 -4,-5.6 -5.7,-8.6 -0.1,-0.2 -0.2,-0.3 0,-0.6 1.4,1.3 2.8,2.6 4.2,3.9 0.9,0.8 1.6,1.8 2.9,2.2 1.7,0.5 3.5,1 5,2.2 0.5,0.4 1,0.7 1.5,1 3.4,2.2 6.9,4.4 10.3,6.5 0.3,0.2 0.6,0.4 0.9,0.1 0.3,-0.4 -0.2,-0.5 -0.4,-0.7 -1.6,-1.5 -3.2,-3 -3.7,-5.3 -0.1,-0.3 -0.4,-0.4 -0.6,-0.5 -1.7,-1.1 -3.4,-2.3 -5,-3.4 -0.3,-0.2 -0.7,-0.4 -0.6,-0.8 0.1,-0.7 -0.4,-0.9 -0.8,-1.2 -2.8,-1.9 -5.4,-4 -7.6,-6.6 -0.2,-0.3 -0.5,-0.6 -0.8,-0.7 -1.5,-0.5 -2.3,-1.8 -3,-3.1 -0.6,-1 -1.3,-2 -1.9,-3 -0.5,-0.8 -1.1,-1.5 -1.4,-2.3 3.7,1 6.8,3.5 10.3,5.3 -0.4,-1.1 -0.8,-2 -1.1,-2.9 -0.1,-0.4 -0.1,-0.9 -0.6,-1 -1,-0.1 -1.3,-0.9 -1.7,-1.5 -0.8,-1.4 -1.8,-2.6 -2.7,-3.9 -2.1,-3 -4.2,-6 -5.1,-9.7 -0.3,-1.2 -0.5,-2.3 -1.2,-3.4 -0.4,-0.7 -0.9,-1.5 -0.9,-2.3 0.1,-1.9 -0.1,-3.7 -0.5,-5.6 -0.7,-4.1 -1.4,-8.1 -2.1,-12.2 0,-0.2 -0.2,-0.5 0.1,-0.7 0.3,-0.2 0.5,0.1 0.6,0.3 1.2,2.2 2.7,4.3 2.7,7.1 0,2.4 1.1,4.6 1.8,6.8 0.2,0.5 0.5,1 0.9,1.4 0.5,0.5 0.7,1 1,1.6 0.6,1.1 0.3,2.8 2.2,3.1 0.2,0 0.3,0.5 0.4,0.8 0.4,1.1 0.7,2.2 1.1,3.5 0.1,-2.5 -0.2,-4.7 0.3,-7 0.6,-2.6 0,-5.3 0.7,-8 0.4,-1.7 0.6,-3.5 0.5,-5.3 0,-0.3 0,-0.7 0.5,-0.8 0,0.5 -0.1,1 -0.1,1.5 0,0.1 -0.1,0.5 0.2,0.4 0.7,-0.4 0.5,0.2 0.5,0.4 0.3,2.6 0.4,5.2 -0.1,7.9 -0.5,2.6 0,5.1 0.8,7.6 0,-3.2 0,-6.5 0,-9.7 0.4,1.1 1,2 1.5,3 0.7,1.3 0.9,2.6 0.9,4 0,4 0,8 0,12 0,0.8 0.6,1.5 0.3,2.3 -0.2,0.7 0,1.3 0.4,1.9 -0.4,-2.4 0.5,-4.7 0.4,-7.1 0,-0.7 0.4,-1.1 1.1,-1.2 0.8,-0.1 0.7,0.4 0.8,0.9 0.2,1.4 0.5,2.8 0.6,4.3 0.1,1.2 0.5,2.2 1.3,3.2 2.6,3.6 5.2,7.3 7.8,10.9 0.4,0.5 0.9,1.1 0.9,1.8 0,0.3 0.2,0.7 0.6,0.5 0.6,-0.3 1.3,-0.5 1.3,-1.5 0,-1 -0.2,-1.9 -0.6,-2.9 -2,-3.9 -4,-7.8 -6,-11.7 -0.1,-0.3 -0.5,-0.5 -0.2,-0.9 0.2,-0.3 0.6,-0.2 0.9,0 0.6,0.4 1.1,0.9 1.8,1.1 0,-2 0,-4 0,-6 0,-0.9 -0.2,-1.6 -0.8,-2.3 -1.7,-2.1 -2.7,-4.5 -3.3,-7.1 -0.6,-2.5 -0.9,-5.1 -1.7,-7.6 -0.6,-2.2 -0.7,-4.4 -0.7,-6.6 0,-0.4 0.1,-0.9 0.7,-1.2 0.7,1.9 1.7,3.7 2.1,5.6 0.5,1.9 2.5,3 2,5.5 0.5,-0.5 1.3,-0.4 1.3,-1.2 -0.1,-1.6 0.2,-3.2 -0.5,-4.8 -0.3,-0.7 -0.3,-1.4 -0.5,-2.4 2.3,2.2 4.1,4.5 6.1,6.6 1.5,1.5 2.2,3.7 2.8,5.8 0.4,1.8 0.9,3.5 1.8,5.2 0.5,0.8 0.6,1.8 0.6,2.8 0,2.5 0,5 0,7.4 0,0.4 0,0.8 -0.2,1.2 -0.1,0.3 -0.4,0.6 -0.7,0.1 -0.6,-1.2 -1.5,-2.4 -1.8,-3.8 -0.4,-2 -0.8,-3.9 -1.2,-5.9 0,-0.2 0,-0.6 -0.4,-0.6 -0.4,1.3 0.1,2.8 -0.4,4.3 -0.9,-0.8 -1.1,-1.8 -1.8,-2.7 0.3,2.2 0.7,4.2 1.4,6.1 1,2.6 1.8,5.2 3,7.7 0.7,1.4 1,2.9 1,4.4 0,1.8 -0.1,3.7 1.8,4.9 0.2,-0.2 0.6,-0.5 0.9,-0.8 -0.3,-0.3 -0.5,-0.6 -0.8,-0.9 -0.3,-0.3 -0.4,-0.7 -0.2,-1 0.3,-0.4 0.8,-0.1 1,0.1 0.4,0.3 0.9,0.7 1,1.1 0.3,1.2 1.1,1.5 2.3,1.2 -0.8,1.5 -1.4,2.8 -2.3,4 -0.7,0.9 -0.9,2.1 -2.4,2.5 -1.6,0.3 -2.8,1.3 -4.2,1.8 z M 450,681.8 c 0,-1.1 0,-2.2 0,-3.3 0,-1 -0.1,-2 -1,-2.7 -0.4,-0.3 -0.5,-0.7 -0.5,-1.2 0.1,-0.9 -0.3,-1.7 -0.5,-2.4 -0.6,-1.7 -1.4,-3.4 -1.8,-5.2 -0.2,-1.1 -0.8,-1.7 -1.6,-2.1 -1.6,-0.9 -3.7,-1.2 -4.5,-3.3 0,-0.1 -0.2,-0.1 -0.3,-0.2 -1.1,-1.1 -2.5,-1.8 -3.3,-3.2 -0.1,-0.3 -0.4,-0.5 -1,-0.3 2,3.1 2.3,6.8 4,9.9 1.2,2.1 2.1,4.3 2.5,6.8 0.4,2.8 1,5.5 1.6,8.2 0.1,0.4 0.3,0.9 0.1,1.3 -0.6,0.9 -0.4,1.9 -0.4,2.9 0,3.5 -0.1,7 0,10.4 0,1.2 -0.6,2.3 -0.4,3.5 0.3,-0.7 0.5,-1.4 0.8,-2.1 1,-2.2 1.1,-4.8 3.6,-6 0.2,-0.1 0.4,-0.4 0.5,-0.6 0.6,-1 1.8,-1.7 2,-3 -1.1,3.2 -2.5,6.2 -3,9.9 1.4,-1.4 2.6,-3.6 3,-4.9 0.4,-1.6 0.8,-3.1 1.9,-4.3 0.4,-0.4 0.6,-0.9 0.6,-1.5 0,-5.1 0,-10.2 0,-15.3 0,-0.6 -0.1,-1.3 -0.9,-1.9 0,3.6 0,7.2 -1.4,10.6 z m -57.5,44 c 4,2.5 12.6,4.8 18.2,5 4.4,0.2 8.8,0.6 13,1.8 2.2,0.6 4.4,1 6.7,0.8 0.4,0 0.7,0.1 1,-0.2 1.1,-1.2 2.6,-2 4,-2.9 0.5,-0.4 0.6,-0.6 0.1,-1.1 -1.1,-1.1 -2.5,-1.6 -3.8,-2.3 -1,-0.6 -1.9,-0.7 -2.9,-0.3 -2.7,1.1 -5.5,1.3 -8.4,1.1 -0.3,0 -0.7,0.2 -0.9,-0.2 -0.1,-0.4 0.3,-0.6 0.6,-0.8 1.4,-0.8 2.7,-1.6 4,-2.4 0.5,-0.3 0.8,-0.6 0.9,-1.3 0.1,-1 0.8,-1.3 1.7,-1.2 0.4,0.1 0.8,0.2 1.1,0.3 -0.4,-0.7 -1,-1.2 -1.5,-1.7 -0.3,-0.3 -0.6,-0.2 -1,0 -2.9,1.9 -6,3.2 -9.3,3.9 -2.7,0.6 -5.4,1.3 -8.1,1.5 -5,0.7 -10.1,0.7 -15.4,0 z m -15.9,-19.9 c 1.9,1.6 3.7,3.2 5.5,4.8 0.6,0.6 0.8,0.4 1.2,-0.3 0.3,-0.5 -0.1,-0.8 -0.2,-1.2 -0.8,-2.8 -2.9,-5 -3.7,-7.9 -1.2,-4.5 -3,-8.7 -3.9,-13.3 -0.7,2.9 -1.3,5.8 -1.8,8.7 -0.4,2.1 -1.1,4.2 -1.1,6.2 0,2.3 0.1,4.6 0.1,6.9 0,2.5 1.2,4.6 2.1,6.8 0.2,0.6 0.9,0.8 1.4,1 1.7,0.7 3.4,1.3 5.1,1.9 0.7,0.2 1.2,1 1.8,1.1 2.2,0.1 4.4,0 7,0 -1.7,-1.5 -2.9,-3 -4.5,-4.1 -3,-1.9 -5.8,-4.2 -8.3,-6.7 -0.3,-0.3 -0.6,-0.6 -0.6,-1.1 -0.1,-0.9 -0.1,-1.8 -0.1,-2.8 z m -1.8,-93.5 c 1.4,0.2 2.8,0.5 4.3,0.7 0.6,0.1 0.9,0 0.7,-0.7 -0.3,-1.4 -0.7,-2.8 -0.7,-4.2 0,-1.3 -0.6,-1.8 -1.6,-2.4 -1.6,-0.8 -3.1,-1.7 -4.1,-3.2 -1,-1.3 -3.2,-1.9 -4.7,-1.2 -0.7,0.3 -1.4,0.3 -2.1,0.1 -1.7,-0.4 -3.3,-1.1 -4.8,-2.1 -0.5,-0.3 -1.1,-0.4 -1.7,-0.5 -0.8,-0.1 -1.1,0.3 -1.2,1 -0.1,0.7 -0.1,1.1 0.7,1.5 1.5,0.7 2.7,1.8 3.4,3.6 -2.3,-0.3 -4.1,-2 -6.5,-1.5 0.6,0.5 1.4,0.5 1.9,1 1.3,1.3 2.6,2.5 3.9,3.7 0.9,0.8 0.8,1.7 -0.4,2.1 -0.5,0.2 -0.4,0.4 -0.3,0.8 0.2,0.7 0.6,1 1.3,1 1.2,0 2.5,-0.1 3.7,0.1 1.5,0.3 3,-0.1 3.9,-0.9 1.3,-1.2 2.7,-1.3 4.3,-1.3 0.9,0 1.2,0.5 0.7,1.3 -0.1,0.5 -0.5,0.8 -0.7,1.1 z M 391.4,743 c -1.5,-0.9 -2.9,-1.7 -4.2,-2.5 -0.4,-0.3 -0.7,-0.5 -0.3,-1.1 0.8,-1.2 0.2,-2.4 -1.2,-2.8 -0.6,-0.2 -1.1,-0.4 -1.6,-0.8 -0.6,-0.5 -1.2,-0.7 -2,-0.7 -0.8,0 -1.5,-0.3 -1.8,-1.1 -0.5,-2.1 -1,-4.2 -1.5,-6.3 -0.1,-0.6 -0.3,-0.8 -0.9,-0.8 -3.6,0 -7.4,0.5 -10.9,-1.1 -0.6,-0.3 -0.8,0 -0.8,0.6 0,1 -0.1,2 -0.4,3 -0.2,0.8 0.1,1.1 0.8,1.4 2.2,0.9 4.5,1.8 6.8,2.4 1.5,0.4 3,0.8 4.4,1.5 0.5,0.2 0.8,0.5 1,1.1 0.5,1.7 1.1,3.4 1.4,5.2 0.3,1.9 1.1,3.3 2.9,4.1 1.4,0.6 2.8,1.5 4.4,1.4 2.4,0 4.9,-0.3 7.3,-0.4 2.4,-0.2 4.7,-0.3 7.1,-0.5 -2.5,-0.6 -5,-0.2 -7.5,-0.1 -2.5,0.2 -5,0.5 -7.4,-0.6 -0.7,-0.3 -1.2,-0.7 -1,-1.5 0.2,-0.9 0.9,-1.1 1.6,-1 0.4,0 0.9,0.2 1.3,0.4 0.8,0.3 1.5,0.4 2.5,0.2 z m 16.5,-7.5 c -1.1,-0.9 -2,-2.3 -3.6,-2.3 -0.7,0 -1.4,-0.3 -2.1,-0.5 -1.8,-0.6 -3.5,-1.1 -5.3,-1.7 1.6,1.7 3.8,2.6 5.1,4.5 -7.1,-2.9 -13.4,-7.2 -20.4,-10.4 -0.1,0.9 0.3,1.5 0.9,2 2.5,2.1 4.9,4.3 7.4,6.3 2.7,2 5.4,4.1 9,4.5 4.5,0.6 9,1.3 13.6,2 -0.1,-1.1 -0.7,-2 -0.7,-3 0,-0.5 -0.1,-1.2 0.8,-1.1 1.5,0.1 3.1,0.2 4.1,1.7 0.2,0.3 0.5,0.5 0.8,0.7 0.3,0.2 0.7,0.4 1,0 0.3,-0.5 -0.1,-0.6 -0.4,-0.8 -1.1,-0.9 -2.4,-1.5 -3.6,-2.1 -1.8,-0.9 -4.7,-0.5 -6.1,1 -0.3,0.3 -0.5,0.6 -1,0.4 -0.2,-0.1 -0.4,-0.1 -0.5,-0.3 0.1,-0.6 0.7,-0.4 1,-0.9 z m 18.3,-222.6 c -0.9,0.1 -1.8,0.2 -2.8,0.3 -0.7,0.1 -0.7,0.8 -0.8,1.2 0,0.5 -0.4,1.2 0.3,1.5 1.2,0.4 1.5,1.3 1.5,2.5 0,0.6 -0.1,1.2 0.8,1.3 4.5,0.9 8.6,2.5 11.8,6.1 0.7,0.8 1.2,-0.4 1.8,-0.5 0.4,0 0.5,-0.3 0.3,-0.7 -0.6,-1.2 -0.9,-2.4 -1.5,-3.6 -0.5,-1.1 -1,-2.2 -1.4,-3.4 -0.3,-0.8 -0.6,-1.4 -1.3,-1.8 -2.6,-1.7 -5.5,-2.7 -8.7,-2.9 z m 22.2,216.6 c 0.8,-0.1 1.6,-0.2 2.4,-0.2 0.5,0 0.9,0.3 1,0.8 0.1,0.5 -0.5,0.3 -0.7,0.4 -0.4,0.2 -0.8,0.4 -1,0.8 -0.3,0.5 -0.6,1.2 -0.3,1.7 0.3,0.5 0.9,0 1.3,0 0.4,0 0.8,0 1.2,-0.1 0.4,-0.1 1.1,-0.1 1.1,-0.5 0.1,-1.1 1,-1.5 1.6,-2.3 1,-1.3 2.1,-2.7 2.6,-4.5 -1.8,0.6 -3.5,0.8 -4.6,2.2 -0.8,1 -1.6,1.2 -2.7,0.5 -0.7,-0.5 -1.4,-1 -2.1,-1.5 -0.4,0.3 0.1,1 -0.5,1 -0.6,0 -0.3,-0.6 -0.3,-1 0,-0.7 -0.4,-1 -0.8,-1.2 -2,-0.8 -3.5,-2.8 -6,-2.3 -1.3,-1 -2.9,-0.7 -4.3,-1.2 -1.4,-0.5 -2.8,-1.2 -4.5,-1.1 0.7,1.1 1.5,2 2.4,2.9 2.4,2.4 4.9,4.9 8.5,5.5 0.3,0.1 0.8,0.2 1,0.5 1.1,1.3 2.6,1 4,1.3 0.7,0.2 1,-0.6 1.3,-1.1 0.3,-0.4 -0.7,-0.1 -0.6,-0.6 z m 2.7,-75 c -0.1,3.5 1.9,6.6 1.7,10.2 1.1,1.7 1.4,3.6 1.8,5.5 0.6,2.3 1.4,4.7 2.3,6.9 0.4,1.1 0.4,2 0,3.1 -0.3,0.8 -0.5,1.7 -0.5,2.5 0.2,2.2 0.1,4.1 -1.1,6.1 -1.5,2.5 -2.4,5.4 -3.6,8.1 -0.1,0.3 -0.4,0.6 -0.3,1 3,-1.8 3.6,-2.4 4.9,-5.5 0.8,-1.8 1.5,-3.5 2.4,-5.3 0.3,-0.6 0.1,-1.4 0.6,-1.9 0.6,-0.6 0.7,-1.4 0.8,-2.2 0.2,-1.6 -0.9,-3.1 -0.2,-4.7 0,-0.1 -0.1,-0.3 -0.1,-0.5 -1.6,-4.2 -2.5,-8.7 -4.2,-12.8 -1.5,-3.6 -2.8,-7.2 -4.5,-10.5 z m 2.2,87.9 c 2.1,0.2 4.2,0.5 6.3,-0.4 0.9,-0.4 1.8,-0.8 2.7,-0.9 1.3,-0.2 1.8,-1 2.2,-2 0.5,-1.2 0.2,-2.4 0.3,-3.7 0,-0.7 0.1,-1.4 0.9,-1.5 1,-0.2 1.5,-1.1 1.8,-1.7 1,-1.9 1.8,-3.9 2.5,-5.9 0.2,-0.5 0.3,-1.2 -0.1,-1.7 -0.2,-0.2 -4,-0.2 -4.3,0 -0.1,0 -0.1,0.1 -0.1,0.2 0.1,1.3 -1,2 -1.1,3.2 -0.4,2.4 -3.4,5.2 -5.6,5.3 1.1,1 1.2,1.5 0.5,3.1 -1.2,2.6 -2.9,4.9 -6,6 z m -24.6,-5 c 0.7,0.8 0.9,2.2 2.2,2.5 2.1,0.6 4.2,1.2 6.5,1.1 0.2,0 0.6,0.1 0.5,-0.2 -0.3,-0.9 0.4,-0.5 0.7,-0.6 0.7,-0.1 1.4,-0.1 2.1,-0.2 2.2,-0.2 4.3,-0.9 6.7,-1.6 -0.7,0.8 -1.2,1.3 -1.9,2 2.7,0.1 5.2,-0.1 7.5,-1 2.3,-0.9 3.2,-3 4,-5.4 -2.1,0.9 -4,1.6 -6,1.8 -4.3,0.5 -8.6,0.7 -12.9,1.5 -2.8,0.5 -5.6,0.9 -8.4,-0.2 -0.2,-0.1 -0.7,0 -1,0.3 z m -59.1,-20.9 c -0.3,1.1 -1.3,1.5 -1.9,2.2 -0.7,0.8 -1.1,1.9 -0.8,3 0.3,1 1.3,1.1 2.1,1.3 0.8,0.2 1.6,0.2 2.4,0.6 1.1,0.5 2.3,0.8 3.5,0.5 -1.9,-2.5 -4,-4.6 -5.3,-7.6 z m 68.2,-102 c -0.7,-0.6 -1.4,-1.3 -2.2,-1.8 -1.5,-1 -2.5,-2.8 -4.6,-2.8 -0.2,0 -0.3,-0.2 -0.5,-0.3 -1.6,-1.3 -1.6,-1.3 -2.9,0.2 -0.1,0.1 -0.2,0.3 -0.3,0.4 -0.5,0.4 -0.6,0.7 0.2,1.1 2.6,1.1 5.2,2.3 7.7,3.5 0.3,0.2 0.6,0.3 1,0 0.4,-0.5 1,-0.3 1.6,-0.3 z m 4.5,39.5 c -2.5,-2.8 -3.4,-6.8 -7.1,-8.7 1.4,3.8 2.9,7.2 7.1,8.7 z m 13.5,2.9 c -0.9,-3.9 -1.7,-7.6 -2.5,-11.6 -1.3,3.2 0.2,9.9 2.5,11.6 z m -29.1,-14.2 c -0.5,3 0.6,5.4 2.5,7.5 0.3,0.3 0.6,0.3 0.9,0.1 0.5,-0.3 0.2,-0.5 0.2,-0.9 -0.6,-2.5 -2.8,-4.3 -3.6,-6.7 z m 13.5,-86.5 c -0.5,-0.4 -1,-0.6 -1.5,-0.1 -0.3,0.3 -0.7,0.4 -1,0.2 -0.9,-0.5 -1.3,0 -1.7,0.7 -0.5,1.1 -1.1,2.1 -2,2.9 2,-1.2 4.1,-2.4 6.2,-3.7 z m -5.7,-26.6 c -0.8,-1 -1.7,-1.6 -2.6,-2 -0.5,-0.2 -1.1,-0.5 -1.5,0.2 -0.3,0.6 0,1.2 0.7,1.5 1,0.4 2.1,0.5 3.4,0.3 z m -24.4,60.8 c -0.1,0 -0.1,-0.1 -0.2,-0.1 -1,1.6 -2,3.1 -3.1,4.7 -0.3,0.4 -0.3,0.9 -0.3,1.4 0,0.2 -0.1,0.5 0.3,0.6 0.3,0 0.4,-0.1 0.5,-0.4 0.9,-2.1 1.9,-4.1 2.8,-6.2 z m 16.1,-65.5 c -0.4,-0.5 -0.7,-0.6 -1.1,-0.7 -1.1,-0.2 -2.2,-0.3 -3.3,-0.2 -0.3,0 -0.8,-0.2 -0.7,0.3 0,0.4 0.4,0.6 0.8,0.6 1.3,0 2.7,0 4.3,0 z m -2.7,128.2 c 0,-0.6 0,-1.2 0,-1.8 0.1,-0.9 -0.4,-1.6 -1,-2.2 -0.1,-0.1 -0.3,-0.3 -0.5,-0.1 -0.2,0.1 -0.1,0.3 0,0.4 0.6,1.2 0.8,2.5 1.5,3.7 z m -10.6,91.8 c -1.9,-0.2 -3.8,0.1 -5.7,-0.3 1.8,0.8 3.7,0.8 5.7,0.3 z m -5.8,-227.6 c -0.3,0.2 -0.4,0.6 -0.5,0.9 -0.1,0.6 -0.3,1.2 0.1,1.7 0,0 0.3,0 0.4,-0.1 0.4,-0.5 0.7,-1.2 0.5,-1.9 -0.1,-0.2 -0.2,-0.5 -0.5,-0.6 z m 41.2,130.8 c -0.3,-1.3 -1.7,-2 -0.8,-3.6 -1.4,1 -1,2.5 0.8,3.6 z M 421,519.4 c 0.3,-0.2 1,0.3 1,-0.4 -0.1,-0.9 -1,-0.5 -1.6,-0.7 -0.4,-0.2 -0.5,0.1 -0.5,0.4 0,0.9 0.6,0.6 1.1,0.7 z m -3.9,-5.2 c 0.1,0.8 -0.3,1.4 0.3,1.9 0.2,0.1 0.6,0.1 0.8,-0.3 0.2,-0.8 -0.3,-1.1 -1.1,-1.6 z m 8.3,13.4 c -0.6,0.3 -0.7,0.7 -0.6,1.2 0.3,0.7 0.9,0.6 1.5,0.7 -0.5,-0.5 -0.8,-1.2 -0.9,-1.9 z m -12.3,-9.7 c 0.2,-0.3 0.5,-0.5 0.6,-0.9 0.1,-0.3 -0.1,-0.5 -0.5,-0.5 -0.5,-0.1 -0.6,0.2 -0.7,0.6 -0.1,0.4 0.1,0.6 0.6,0.8 z m -6.1,18.7 c 0.5,-1.3 1,-2.2 1.4,-3.1 -0.1,0 -0.2,-0.1 -0.3,-0.1 -0.4,1 -1.2,1.7 -1.1,3.2 z m 13.4,205.6 c 0.5,-0.1 1.1,0.4 1.4,-0.2 0.1,-0.2 -0.2,-0.7 -0.4,-0.8 -0.7,-0.2 -0.6,0.6 -1,1 z m 10.5,0.4 c -0.5,-0.2 -1.2,-1.3 -1.6,0.2 0.6,0 1.1,0 1.6,-0.2 z M 405,680.4 c 0,-1 0,-1 -1.6,-1.5 0.4,0.8 1,1.1 1.6,1.5 z m 37.7,-142.7 c -0.4,0.5 -0.6,1 -0.5,1.4 0.1,0.4 0.6,0.2 1,0.1 -0.2,-0.5 -0.3,-0.9 -0.5,-1.5 z m -36.3,62.5 c 0.4,-0.9 0.3,-1.8 0.3,-2.6 -0.1,0 -0.2,0 -0.3,0 0,0.9 0,1.7 0,2.6 z m 19,7.9 c -0.6,-0.1 -1.1,-0.4 -1.5,0.2 -0.1,0.2 0.2,0.7 0.5,0.7 0.6,0.1 0.6,-0.5 1,-0.9 z m 12.1,124 c 1.2,0.2 1.3,0.2 2.1,-0.2 -1.6,-0.2 -1.6,-0.2 -2.1,0.2 z"
   id="path18" />
		<path
   d="m 234.9,728.3 c 0.9,-1.4 1.5,-2.8 3.2,-3.1 -0.3,2 -1.2,2.8 -3.2,3.1 z"
   id="path20" />
		<path
   d="m 212.3,568.3 c -0.7,0 -1.2,-0.3 -1.3,-1 -0.2,-0.7 0.1,-1.3 0.7,-1.6 0.5,-0.3 1.1,-0.5 1.7,-0.7 0.6,-0.2 1.1,0 1.5,0.5 0.3,0.5 0.2,1.1 -0.1,1.5 -0.7,0.9 -1.6,1.1 -2.5,1.3 z"
   id="path22" />
		<path
   d="m 216.5,722.8 c -0.4,1.3 -0.1,3 -1.5,3.9 -0.1,-1.5 0.7,-2.7 1.5,-3.9 z"
   id="path24" />
		<path
   d="m 203.7,728.5 c 0.6,-1.2 1.4,-2.3 2.5,-3 -0.7,1.1 -1.5,2.1 -2.5,3 z"
   id="path26" />
		<path
   d="m 386.9,611.1 c 3.6,1.2 5.7,4 7.3,7.2 0.6,1.1 1.2,2.2 2.3,2.9 1.6,1 3,2.4 3.4,4 0.5,1.6 1.6,1.3 2.5,1.9 -0.1,-1 0.4,-1.8 0.1,-2.7 -0.2,-0.6 0.1,-1.1 0.7,-1.4 0.7,-0.3 1.5,-0.3 1.9,0.3 0.8,1.2 1.8,1.5 3.2,1.4 0.2,0 0.5,0 0.6,0.1 1.2,1.2 2.6,2.3 3.5,3.7 0.6,0.9 -0.3,1.3 -0.7,1.7 1.7,1.6 3.6,2.8 5.6,3.9 0.6,0.3 1.1,0.8 0.9,1.7 -0.2,0.7 -0.9,0.9 -1.5,0.9 -1.2,0 -2.6,0.4 -3.4,-1.1 -0.1,-0.2 -0.3,-0.1 -0.5,0 -0.9,0.8 -1.6,0.4 -2.2,-0.4 -0.9,-1.2 -1.8,-2.3 -2.7,-3.5 -0.2,-0.3 -0.3,-0.5 -0.5,-0.8 -0.2,-0.2 -0.5,-0.5 -0.8,-0.3 -0.3,0.2 -0.1,0.5 -0.1,0.8 0,1.5 0,3 0,4.4 0,0.7 -0.1,1.3 -0.8,1.6 -0.7,0.3 -1.2,-0.1 -1.6,-0.7 -0.1,-0.2 -0.2,-0.4 -0.4,-0.4 -2.2,-0.7 -2.9,-2.8 -4.1,-4.4 -0.5,-0.7 -1,-1.5 -1,-2.5 -0.1,-0.9 -0.4,-1.8 -0.6,-2.7 -0.6,-1.8 -1.6,-3 -3.6,-3.5 -4.6,-1.3 -3.7,-0.5 -5,-5 -0.6,-2 -1,-4.1 -1.9,-6 -0.5,-0.4 -0.7,-0.8 -0.6,-1.1 z"
   id="path28" />
		<path
   d="m 443.1,574.9 c -0.1,-0.2 -0.8,-0.2 -0.5,-0.7 0.4,-0.7 0.8,-1.5 1.7,-1.7 1.7,-0.5 3.4,-0.1 5.1,-0.3 2.5,-0.3 4.7,0.5 7.1,0.8 1.4,0.2 2,0.5 2.2,1.9 0.1,0.9 0.4,1.7 0.7,2.5 0.1,0.4 0.3,0.8 -0.3,1 -0.4,0.1 -0.7,0 -1,-0.4 -0.9,-1.6 -2,-2.9 -3.9,-3.5 -0.5,-0.1 -0.7,-0.3 -1.3,0 -1,0.5 -2.1,0.2 -3.1,0.5 -1.7,0.5 -3.3,1.2 -4.9,1.9 -1.5,0.7 -3,1.2 -4.4,1.8 0.7,1 1.1,1.2 1.8,0.5 0.8,-0.7 1.6,-1 2.6,-1 -0.3,0 -0.7,-0.1 -1,-0.1 1.8,-1.3 3.9,-1.4 5.8,-1.2 2,0.2 3.3,2.2 5.3,2.9 -0.5,0.7 -1.2,0.8 -1.8,0.9 -1.6,0.4 -3.3,0.8 -4.4,2.2 -0.3,0.4 -0.6,0.4 -1.1,0.2 -2.2,-0.7 -4.4,-1.6 -6.9,-1.3 -0.3,0 -0.6,0 -0.8,-0.2 -1.9,-1.7 -4.2,-1.1 -6.4,-1.2 -0.6,0 -1.2,0 -2,0 0.4,-0.7 0.8,-1 1.3,-1.3 1.3,-0.8 2.6,-1.4 3.6,-2.7 0.5,-0.6 1.2,-0.6 1.8,-0.5 1.8,0.7 3.3,0.2 4.8,-1 z"
   id="path30" />
		<path
   d="m 427.6,583.9 c 4.1,0.5 8.4,1.5 12.6,2.6 1.1,0.3 2.2,0.7 3.3,0.9 3.4,0.8 6.1,2.9 9.2,4.2 1.6,0.7 3,1.7 4.2,2.9 0.9,0.9 1.6,2 1.5,3.4 -0.1,1.1 0.9,2 0.4,3.2 -0.3,0.7 -0.5,1.5 -1.4,1.5 -0.9,0.1 -1.3,-0.5 -1.6,-1.2 -0.6,-1.3 -1.3,-2.5 -2.4,-3.6 -0.8,-0.8 -1.1,-2 -2.1,-2.7 -2.5,-1.7 -5.1,-3.2 -7.8,-4.5 -2.3,-1.2 -4.8,-1.8 -7.4,-2.4 -3.5,-0.8 -6.9,-2.1 -10.3,-3.2 -0.2,-0.1 -0.6,-0.1 -0.6,-0.5 0,-0.3 0.3,-0.5 0.6,-0.5 0.5,0 1,0 1.8,-0.1 z"
   id="path32" />
		<path
   d="m 459.2,582.1 c -0.4,0.5 -0.8,0.6 -1.3,0.6 -0.6,0 -1.2,0.2 -1.2,0.9 0,0.8 0.6,1 1.3,1 0.3,0 0.5,0 0.9,0 0,0.5 -0.5,1.1 0.1,1.5 0.5,0.4 1.1,0.2 1.6,0 1.2,-0.2 2.4,-0.8 3.9,-0.5 -1.5,1.3 -0.5,2.5 -0.1,3.8 0.3,0.8 0.6,1.6 0.9,2.4 0.4,1.2 -0.3,2 -1.5,1.8 -0.9,-0.2 -1.1,0.1 -0.9,0.9 0.1,0.6 0.1,1.2 -0.2,1.8 -0.3,0.6 -0.8,0.9 -1.5,0.7 -0.6,-0.1 -1.1,-0.5 -1,-1.2 0.2,-1.8 -0.9,-3 -1.9,-4.3 -0.4,-0.5 -0.9,-1 -1.4,-1.5 -0.7,-0.9 -0.5,-1.6 0.3,-2.2 0.2,-0.1 0.6,-0.1 0.4,-0.5 -0.1,-0.3 -0.4,-0.4 -0.7,-0.4 -0.9,0 -1.8,0 -2.8,0 -0.9,0 -1.6,-0.3 -1.7,-1.3 0,-0.5 -0.4,-0.6 -0.7,-0.9 -0.4,-0.3 -1,-0.5 -1,-0.9 0.1,-0.5 0.8,-0.5 1.3,-0.7 1.5,-0.6 3.1,-0.9 4.8,-0.8 0.9,-0.2 1.6,-0.2 2.4,-0.2 z"
   id="path34" />
		<path
   d="m 434.9,602.1 c 1.3,-0.7 2.5,-1.9 4.2,-1.9 0.9,0 1.1,-0.8 1.3,-1.5 0.2,-0.6 2.2,-2.5 2.8,-2.6 0.6,0 0.8,0.5 0.7,0.9 -0.2,1 0.3,0.8 0.9,0.8 0.9,0 1.8,-0.1 2.8,0 1.1,0.1 1.3,0.8 0.6,1.6 -1,1.3 -2.4,1.7 -4,2 -2.5,0.5 -5.2,0.1 -7.7,0.8 -0.4,0.1 -0.9,0 -1.4,0 -0.1,0.1 -0.2,0 -0.2,-0.1 z"
   id="path36" />
		<path
   d="m 403.6,617.9 c -1.1,0 -2.2,0 -3.3,0 -0.2,0 -0.5,0 -0.6,-0.3 -0.9,-1.2 -2.1,-2.1 -3.1,-3.2 -0.2,-0.2 -0.4,-0.5 -0.6,-0.8 -0.4,-0.7 -0.6,-1.4 -0.7,-2.2 -0.1,-0.7 -0.9,-1.2 -0.8,-2.3 3.4,2.7 6.2,5.7 9.1,8.8 z"
   id="path38" />
		<path
   d="m 455.5,569.7 c -2.6,0 -5.1,0 -7.5,0 0.3,-2 1.5,-2.8 3.5,-2.4 1.4,0.3 2.9,1.2 4,2.4 z"
   id="path40" />
		<path
   d="m 434.8,591.4 c -1,2.5 -3.3,3.5 -5.5,4.6 1.2,-2.2 3.5,-3.3 5.5,-4.6 z"
   id="path42" />
		<path
   d="m 421.9,616.1 c -0.9,0.3 -1.5,-0.2 -2.1,-0.4 -1,-0.4 -2.1,-0.8 -3,-1.4 -0.4,-0.3 -0.7,-0.7 -0.5,-1.1 0.3,-0.4 0.6,0 0.9,0.1 1.9,0.5 3.4,1.3 4.7,2.8 z"
   id="path44" />
		<path
   d="m 422.1,588.6 c 0.1,-0.6 0.2,-1.1 0.7,-1 1.8,0 3.6,-0.2 5.4,0.4 -1.9,0.2 -3.9,0.4 -6.1,0.6 z"
   id="path46" />
		<path
   d="m 435.7,604.4 c 1.6,-0.4 3.1,-1 5,-0.6 -1.7,1 -3.4,0.8 -5,0.6 z"
   id="path48" />
		<path
   d="m 437.3,696.7 c -0.6,0.9 -1.2,1.7 -1.8,2.5 0.3,-1.1 -0.2,-2.5 1.8,-2.5 z"
   id="path50" />
		<path
   d="m 414.6,535.5 c 0.1,-2.5 0.9,-2.9 3.2,-1.7 0.6,0.3 1.2,0.2 1.8,0.2 0.9,0 1.6,0.3 1.7,1.2 0.1,0.7 0.5,0.9 1,1.2 0.3,0.1 0.7,0.3 1,0.5 0.5,0.3 0.9,0.8 0.7,1.4 -0.1,0.6 -0.6,1 -1.2,1.1 -1.8,0.1 -3.6,0.4 -5.5,-0.2 -1.7,-0.8 -2.7,-2.1 -2.7,-3.7 z"
   id="path52" />
		<path
   d="m 378,731.9 c -1,-0.6 -1.9,-1 -2.8,-1.5 -0.3,-0.1 -0.5,-0.4 -0.4,-0.7 0.2,-0.4 0.5,-0.1 0.7,0 1.1,0.3 1.9,0.8 2.5,2.2 z"
   id="path54" />
		<path
   d="m 459.6,736.1 c 0.7,-1.5 0.7,-3.4 2.7,-3.7 0,1.9 -1.2,3.6 -2.7,3.7 z"
   id="path56" />
	</g>
</g>
<g
   id="Layer_4"
   class="st1"
   transform="translate(-159.83333,-445.8)">
	<polygon
   class="st2"
   points="329,687.2 329,684.9 305,685.1 305,687.4 315.5,687.3 315.3,723.3 305,723.4 305,725.7 329,725.5 329,723.2 317.5,723.3 317.8,687.3 "
   id="polygon62" />
	<path
   class="st2"
   d="m 331,638.6 c -7.7,-6.9 -24.6,-4.8 -25.3,-4.7 l -1,0.1 -0.3,43.2 h 2.3 l 0.1,-16.4 c 1.3,0.2 16.1,2.2 23.6,-4 2.8,-2.3 4.2,-5.4 4.3,-9.2 0.1,-3.7 -1.2,-6.7 -3.7,-9 z m -2.1,16.4 c -6.9,5.8 -22,3.6 -22.2,3.5 v 1.7 l 0.2,-24.3 c 3.7,-0.3 16.6,-1.1 22.6,4.2 2.1,1.9 3,4.2 2.9,7.3 -0.1,3.3 -1.2,5.8 -3.5,7.6 z"
   id="path64" />
	<polyline
   class="st2"
   points="303.1,463.5 303.1,506.2 305.3,506.2 305.3,465.7 332.1,506.9 334.2,506.9 334.2,506.9 334.2,463.1    331.9,463.1 331.9,502.4 306.6,463.5  "
   id="polyline66" />
	<polygon
   class="st2"
   points="318.2,587.6 302,562.7 299.9,562.7 299.9,563.6 299.9,605.7 302.2,605.7 302.2,567.1 317.3,590.3 318.2,590.3 319.1,590.3 334.1,567.1 333.9,605.5 336.1,605.5 336.4,563.3 336.4,562.7 334.4,562.7 "
   id="polygon68" />
	<path
   class="st2"
   d="m 317.7,511.8 -11.4,25.3 v 0 l -0.6,1.3 -7.3,16.2 h 2.5 l 6.9,-15.2 20.3,-0.2 6,15.3 h 2.4 l -6.1,-15.4 v 0 l -0.9,-2.3 v 0 l -9.9,-25 m -10.8,25.2 9.9,-21.9 8.6,21.8 z"
   id="path70" />
</g>
<g
   id="Layer_5"
   transform="translate(-159.83333,-445.8)">
	<text
   transform="matrix(1.4346,0,0,1,303.7578,498.6351)"
   class="st3 st4"
   id="text73">N </text>
	<text
   transform="matrix(1.4346,0,0,1,304.6611,550.6351)"
   class="st3 st4"
   id="text75">A </text>
	<text
   transform="matrix(1.4346,0,0,1,301.3613,602.6351)"
   class="st3 st4"
   id="text77">M </text>
	<text
   transform="matrix(1.4346,0,0,1,304.6895,667.6351)"
   class="st3 st4"
   id="text79">P </text>
	<text
   transform="matrix(1.4346,0,0,1,312.4375,715.6351)"
   class="st3 st4"
   id="text81">I</text>
</g>
</svg>
